<svg width="395" height="262" viewBox="0 0 395 262" fill="none" xmlns="http://www.w3.org/2000/svg">
<g filter="url(#filter0_d_66_140)">
<rect width="393" height="260" rx="16" fill="#FDF3E9"/>
<rect x="0.5" y="0.5" width="392" height="259" rx="15.5" stroke="black"/>
</g>
<path d="M13.288 38.8008V37.7688H15.216V43.6008H14.064V38.8008H13.288ZM18.1464 43.6728C17.7838 43.6728 17.4584 43.6088 17.1704 43.4808C16.8824 43.3475 16.6531 43.1688 16.4824 42.9448C16.3171 42.7208 16.2264 42.4728 16.2104 42.2008H17.3384C17.3598 42.3715 17.4424 42.5128 17.5864 42.6248C17.7358 42.7368 17.9198 42.7928 18.1384 42.7928C18.3518 42.7928 18.5171 42.7502 18.6344 42.6648C18.7571 42.5795 18.8184 42.4702 18.8184 42.3368C18.8184 42.1928 18.7438 42.0862 18.5944 42.0168C18.4504 41.9422 18.2184 41.8622 17.8984 41.7768C17.5678 41.6968 17.2958 41.6142 17.0824 41.5288C16.8744 41.4435 16.6931 41.3128 16.5384 41.1368C16.3891 40.9608 16.3144 40.7235 16.3144 40.4248C16.3144 40.1795 16.3838 39.9555 16.5224 39.7528C16.6664 39.5502 16.8691 39.3902 17.1304 39.2728C17.3971 39.1555 17.7091 39.0968 18.0664 39.0968C18.5944 39.0968 19.0158 39.2302 19.3304 39.4968C19.6451 39.7582 19.8184 40.1128 19.8504 40.5608H18.7784C18.7624 40.3848 18.6878 40.2462 18.5544 40.1448C18.4264 40.0382 18.2531 39.9848 18.0344 39.9848C17.8318 39.9848 17.6744 40.0222 17.5624 40.0968C17.4558 40.1715 17.4024 40.2755 17.4024 40.4088C17.4024 40.5582 17.4771 40.6728 17.6264 40.7528C17.7758 40.8275 18.0078 40.9048 18.3224 40.9848C18.6424 41.0648 18.9064 41.1475 19.1144 41.2328C19.3224 41.3182 19.5011 41.4515 19.6504 41.6328C19.8051 41.8088 19.8851 42.0435 19.8904 42.3368C19.8904 42.5928 19.8184 42.8222 19.6744 43.0248C19.5358 43.2275 19.3331 43.3875 19.0664 43.5048C18.8051 43.6168 18.4984 43.6728 18.1464 43.6728ZM22.1138 40.0888V42.2328C22.1138 42.3822 22.1485 42.4915 22.2178 42.5608C22.2925 42.6248 22.4151 42.6568 22.5858 42.6568H23.1058V43.6008H22.4018C21.4578 43.6008 20.9858 43.1422 20.9858 42.2248V40.0888H20.4578V39.1688H20.9858V38.0728H22.1138V39.1688H23.1058V40.0888H22.1138ZM29.0736 38.0168V41.9368C29.0736 42.4808 28.9163 42.9048 28.6016 43.2088C28.287 43.5075 27.8656 43.6568 27.3376 43.6568C26.8043 43.6568 26.3723 43.5022 26.0416 43.1928C25.7163 42.8835 25.5536 42.4515 25.5536 41.8968H26.6736C26.679 42.1368 26.735 42.3235 26.8416 42.4568C26.9536 42.5902 27.1136 42.6568 27.3216 42.6568C27.5243 42.6568 27.679 42.5928 27.7856 42.4648C27.8923 42.3368 27.9456 42.1608 27.9456 41.9368V38.0168H29.0736ZM30.0921 41.3688C30.0921 40.9208 30.1801 40.5235 30.3561 40.1768C30.5375 39.8302 30.7801 39.5635 31.0841 39.3768C31.3935 39.1902 31.7375 39.0968 32.1161 39.0968C32.4468 39.0968 32.7348 39.1635 32.9801 39.2968C33.2308 39.4302 33.4308 39.5982 33.5801 39.8008V39.1688H34.7081V43.6008H33.5801V42.9528C33.4361 43.1608 33.2361 43.3342 32.9801 43.4728C32.7295 43.6062 32.4388 43.6728 32.1081 43.6728C31.7348 43.6728 31.3935 43.5768 31.0841 43.3848C30.7801 43.1928 30.5375 42.9235 30.3561 42.5768C30.1801 42.2248 30.0921 41.8222 30.0921 41.3688ZM33.5801 41.3848C33.5801 41.1128 33.5268 40.8808 33.4201 40.6888C33.3135 40.4915 33.1695 40.3422 32.9881 40.2408C32.8068 40.1342 32.6121 40.0808 32.4041 40.0808C32.1961 40.0808 32.0041 40.1315 31.8281 40.2328C31.6521 40.3342 31.5081 40.4835 31.3961 40.6808C31.2895 40.8728 31.2361 41.1022 31.2361 41.3688C31.2361 41.6355 31.2895 41.8702 31.3961 42.0728C31.5081 42.2702 31.6521 42.4222 31.8281 42.5288C32.0095 42.6355 32.2015 42.6888 32.4041 42.6888C32.6121 42.6888 32.8068 42.6382 32.9881 42.5368C33.1695 42.4302 33.3135 42.2808 33.4201 42.0888C33.5268 41.8915 33.5801 41.6568 33.5801 41.3848ZM38.258 39.1048C38.786 39.1048 39.2127 39.2728 39.538 39.6088C39.8633 39.9395 40.026 40.4035 40.026 41.0008V43.6008H38.906V41.1528C38.906 40.8008 38.818 40.5315 38.642 40.3448C38.466 40.1528 38.226 40.0568 37.922 40.0568C37.6127 40.0568 37.3673 40.1528 37.186 40.3448C37.01 40.5315 36.922 40.8008 36.922 41.1528V43.6008H35.802V39.1688H36.922V39.7208C37.0713 39.5288 37.2607 39.3795 37.49 39.2728C37.7247 39.1608 37.9807 39.1048 38.258 39.1048ZM46.4053 40.2728V41.2168H43.0133V40.2728H46.4053ZM49.4556 39.3048C49.4823 38.7715 49.669 38.3608 50.0156 38.0728C50.3676 37.7795 50.829 37.6328 51.3996 37.6328C51.789 37.6328 52.1223 37.7022 52.3996 37.8408C52.677 37.9742 52.885 38.1582 53.0236 38.3928C53.1676 38.6222 53.2396 38.8835 53.2396 39.1768C53.2396 39.5128 53.1516 39.7982 52.9756 40.0328C52.805 40.2622 52.5996 40.4168 52.3596 40.4968V40.5288C52.669 40.6248 52.909 40.7955 53.0796 41.0408C53.2556 41.2862 53.3436 41.6008 53.3436 41.9848C53.3436 42.3048 53.269 42.5902 53.1196 42.8408C52.9756 43.0915 52.7596 43.2888 52.4716 43.4328C52.189 43.5715 51.8476 43.6408 51.4476 43.6408C50.845 43.6408 50.3543 43.4888 49.9756 43.1848C49.597 42.8808 49.397 42.4328 49.3756 41.8408H50.4636C50.4743 42.1022 50.5623 42.3128 50.7276 42.4728C50.8983 42.6275 51.1303 42.7048 51.4236 42.7048C51.6956 42.7048 51.9036 42.6302 52.0476 42.4808C52.197 42.3262 52.2716 42.1288 52.2716 41.8888C52.2716 41.5688 52.1703 41.3395 51.9676 41.2008C51.765 41.0622 51.4503 40.9928 51.0236 40.9928H50.7916V40.0728H51.0236C51.781 40.0728 52.1596 39.8195 52.1596 39.3128C52.1596 39.0835 52.0903 38.9048 51.9516 38.7768C51.8183 38.6488 51.6236 38.5848 51.3676 38.5848C51.117 38.5848 50.9223 38.6542 50.7836 38.7928C50.6503 38.9262 50.573 39.0968 50.5516 39.3048H49.4556ZM54.0927 38.8008V37.7688H56.0207V43.6008H54.8687V38.8008H54.0927ZM61.1134 38.0168C61.7 38.0168 62.2147 38.1315 62.6574 38.3608C63.1054 38.5902 63.4494 38.9182 63.6894 39.3448C63.9347 39.7662 64.0574 40.2568 64.0574 40.8168C64.0574 41.3768 63.9347 41.8675 63.6894 42.2888C63.4494 42.7048 63.1054 43.0275 62.6574 43.2568C62.2147 43.4862 61.7 43.6008 61.1134 43.6008H59.1614V38.0168H61.1134ZM61.0734 42.6488C61.66 42.6488 62.1134 42.4888 62.4334 42.1688C62.7534 41.8488 62.9134 41.3982 62.9134 40.8168C62.9134 40.2355 62.7534 39.7822 62.4334 39.4568C62.1134 39.1262 61.66 38.9608 61.0734 38.9608H60.2814V42.6488H61.0734ZM69.0158 41.2888C69.0158 41.4488 69.0051 41.5928 68.9838 41.7208H65.7438C65.7704 42.0408 65.8824 42.2915 66.0798 42.4728C66.2771 42.6542 66.5198 42.7448 66.8078 42.7448C67.2238 42.7448 67.5198 42.5662 67.6958 42.2088H68.9038C68.7758 42.6355 68.5304 42.9875 68.1678 43.2648C67.8051 43.5368 67.3598 43.6728 66.8318 43.6728C66.4051 43.6728 66.0211 43.5795 65.6798 43.3928C65.3438 43.2008 65.0798 42.9315 64.8878 42.5848C64.7011 42.2382 64.6077 41.8382 64.6077 41.3848C64.6077 40.9262 64.7011 40.5235 64.8878 40.1768C65.0744 39.8302 65.3358 39.5635 65.6718 39.3768C66.0078 39.1902 66.3944 39.0968 66.8318 39.0968C67.2531 39.0968 67.6291 39.1875 67.9598 39.3688C68.2958 39.5502 68.5544 39.8088 68.7358 40.1448C68.9224 40.4755 69.0158 40.8568 69.0158 41.2888ZM67.8558 40.9688C67.8504 40.6808 67.7464 40.4515 67.5438 40.2808C67.3411 40.1048 67.0931 40.0168 66.7998 40.0168C66.5224 40.0168 66.2878 40.1022 66.0958 40.2728C65.9091 40.4382 65.7944 40.6702 65.7518 40.9688H67.8558ZM69.5452 41.3848C69.5452 40.9262 69.6386 40.5262 69.8253 40.1848C70.0119 39.8382 70.2706 39.5715 70.6013 39.3848C70.9319 39.1928 71.3106 39.0968 71.7373 39.0968C72.2866 39.0968 72.7399 39.2355 73.0973 39.5128C73.4599 39.7848 73.7026 40.1688 73.8253 40.6648H72.6173C72.5533 40.4728 72.4439 40.3235 72.2893 40.2168C72.1399 40.1048 71.9533 40.0488 71.7293 40.0488C71.4093 40.0488 71.1559 40.1662 70.9693 40.4008C70.7826 40.6302 70.6893 40.9582 70.6893 41.3848C70.6893 41.8062 70.7826 42.1342 70.9693 42.3688C71.1559 42.5982 71.4093 42.7128 71.7293 42.7128C72.1826 42.7128 72.4786 42.5102 72.6173 42.1048H73.8253C73.7026 42.5848 73.4599 42.9662 73.0973 43.2488C72.7346 43.5315 72.2813 43.6728 71.7373 43.6728C71.3106 43.6728 70.9319 43.5795 70.6013 43.3928C70.2706 43.2008 70.0119 42.9342 69.8253 42.5928C69.6386 42.2462 69.5452 41.8435 69.5452 41.3848ZM76.776 42.3368C77.288 41.9102 77.696 41.5555 78 41.2728C78.304 40.9848 78.5573 40.6862 78.76 40.3768C78.9627 40.0675 79.064 39.7635 79.064 39.4648C79.064 39.1928 79 38.9795 78.872 38.8248C78.744 38.6702 78.5467 38.5928 78.28 38.5928C78.0133 38.5928 77.808 38.6835 77.664 38.8648C77.52 39.0408 77.4453 39.2835 77.44 39.5928H76.352C76.3733 38.9528 76.5627 38.4675 76.92 38.1368C77.2827 37.8062 77.7413 37.6408 78.296 37.6408C78.904 37.6408 79.3707 37.8035 79.696 38.1288C80.0213 38.4488 80.184 38.8728 80.184 39.4008C80.184 39.8168 80.072 40.2142 79.848 40.5928C79.624 40.9715 79.368 41.3022 79.08 41.5848C78.792 41.8622 78.416 42.1982 77.952 42.5928H80.312V43.5208H76.36V42.6888L76.776 42.3368ZM81.0178 40.6088C81.0178 39.6862 81.1831 38.9635 81.5138 38.4408C81.8498 37.9182 82.4044 37.6568 83.1778 37.6568C83.9511 37.6568 84.5031 37.9182 84.8338 38.4408C85.1698 38.9635 85.3378 39.6862 85.3378 40.6088C85.3378 41.5368 85.1698 42.2648 84.8338 42.7928C84.5031 43.3208 83.9511 43.5848 83.1778 43.5848C82.4044 43.5848 81.8498 43.3208 81.5138 42.7928C81.1831 42.2648 81.0178 41.5368 81.0178 40.6088ZM84.2338 40.6088C84.2338 40.2142 84.2071 39.8835 84.1538 39.6168C84.1058 39.3448 84.0044 39.1235 83.8498 38.9528C83.7004 38.7822 83.4764 38.6968 83.1778 38.6968C82.8791 38.6968 82.6524 38.7822 82.4978 38.9528C82.3484 39.1235 82.2471 39.3448 82.1938 39.6168C82.1458 39.8835 82.1218 40.2142 82.1218 40.6088C82.1218 41.0142 82.1458 41.3555 82.1938 41.6328C82.2418 41.9048 82.3431 42.1262 82.4978 42.2968C82.6524 42.4622 82.8791 42.5448 83.1778 42.5448C83.4764 42.5448 83.7031 42.4622 83.8578 42.2968C84.0124 42.1262 84.1138 41.9048 84.1618 41.6328C84.2098 41.3555 84.2338 41.0142 84.2338 40.6088ZM86.5416 42.3368C87.0536 41.9102 87.4616 41.5555 87.7656 41.2728C88.0696 40.9848 88.323 40.6862 88.5256 40.3768C88.7283 40.0675 88.8296 39.7635 88.8296 39.4648C88.8296 39.1928 88.7656 38.9795 88.6376 38.8248C88.5096 38.6702 88.3123 38.5928 88.0456 38.5928C87.779 38.5928 87.5736 38.6835 87.4296 38.8648C87.2856 39.0408 87.211 39.2835 87.2056 39.5928H86.1176C86.139 38.9528 86.3283 38.4675 86.6856 38.1368C87.0483 37.8062 87.507 37.6408 88.0616 37.6408C88.6696 37.6408 89.1363 37.8035 89.4616 38.1288C89.787 38.4488 89.9496 38.8728 89.9496 39.4008C89.9496 39.8168 89.8376 40.2142 89.6136 40.5928C89.3896 40.9715 89.1336 41.3022 88.8456 41.5848C88.5576 41.8622 88.1816 42.1982 87.7176 42.5928H90.0776V43.5208H86.1256V42.6888L86.5416 42.3368ZM94.7034 38.7368H92.1114V40.1048C92.2234 39.9662 92.3834 39.8542 92.5914 39.7688C92.7994 39.6782 93.0207 39.6328 93.2554 39.6328C93.682 39.6328 94.0314 39.7262 94.3034 39.9128C94.5754 40.0995 94.7727 40.3395 94.8954 40.6328C95.018 40.9208 95.0794 41.2302 95.0794 41.5608C95.0794 42.1742 94.9034 42.6675 94.5514 43.0408C94.2047 43.4142 93.7087 43.6008 93.0634 43.6008C92.4554 43.6008 91.97 43.4488 91.6074 43.1448C91.2447 42.8408 91.0394 42.4435 90.9914 41.9528H92.0794C92.1274 42.1662 92.234 42.3368 92.3994 42.4648C92.57 42.5928 92.786 42.6568 93.0474 42.6568C93.362 42.6568 93.5994 42.5582 93.7594 42.3608C93.9194 42.1635 93.9994 41.9022 93.9994 41.5768C93.9994 41.2462 93.9167 40.9955 93.7514 40.8248C93.5914 40.6488 93.354 40.5608 93.0394 40.5608C92.8154 40.5608 92.6287 40.6168 92.4794 40.7288C92.33 40.8408 92.2234 40.9902 92.1594 41.1768H91.0874V37.7528H94.7034V38.7368Z" fill="#949494"/>
<g filter="url(#filter1_d_66_140)">
<mask id="path-4-inside-1_66_140" fill="white">
<path d="M243.5 96.8823L237.005 87.9849H234V51.4067H296V87.9849H249.995L243.5 96.8823Z"/>
</mask>
<path d="M243.5 96.8823L237.005 87.9849H234V51.4067H296V87.9849H249.995L243.5 96.8823Z" fill="#FDF3E9"/>
<path d="M243.5 96.8823L242.692 97.4719L243.5 98.5784L244.308 97.4719L243.5 96.8823ZM237.005 87.9849L237.813 87.3953L237.513 86.9849H237.005V87.9849ZM234 87.9849H233V88.9849H234V87.9849ZM234 51.4067V50.4067H233V51.4067H234ZM296 51.4067H297V50.4067H296V51.4067ZM296 87.9849V88.9849H297V87.9849H296ZM249.995 87.9849V86.9849H249.487L249.187 87.3953L249.995 87.9849ZM243.5 96.8823L244.308 96.2927L237.813 87.3953L237.005 87.9849L236.197 88.5745L242.692 97.4719L243.5 96.8823ZM237.005 87.9849V86.9849H234V87.9849V88.9849H237.005V87.9849ZM234 87.9849H235V51.4067H234H233V87.9849H234ZM234 51.4067V52.4067H296V51.4067V50.4067H234V51.4067ZM296 51.4067H295V87.9849H296H297V51.4067H296ZM296 87.9849V86.9849H249.995V87.9849V88.9849H296V87.9849ZM249.995 87.9849L249.187 87.3953L242.692 96.2927L243.5 96.8823L244.308 97.4719L250.803 88.5745L249.995 87.9849Z" fill="black" mask="url(#path-4-inside-1_66_140)"/>
</g>
<path d="M21.54 221.048C21.54 219.672 21.804 218.588 22.332 217.796C22.868 217.004 23.728 216.608 24.912 216.608C26.096 216.608 26.952 217.004 27.48 217.796C28.016 218.588 28.284 219.672 28.284 221.048C28.284 222.44 28.016 223.532 27.48 224.324C26.952 225.116 26.096 225.512 24.912 225.512C23.728 225.512 22.868 225.116 22.332 224.324C21.804 223.532 21.54 222.44 21.54 221.048ZM26.268 221.048C26.268 220.24 26.18 219.62 26.004 219.188C25.828 218.748 25.464 218.528 24.912 218.528C24.36 218.528 23.996 218.748 23.82 219.188C23.644 219.62 23.556 220.24 23.556 221.048C23.556 221.592 23.588 222.044 23.652 222.404C23.716 222.756 23.844 223.044 24.036 223.268C24.236 223.484 24.528 223.592 24.912 223.592C25.296 223.592 25.584 223.484 25.776 223.268C25.976 223.044 26.108 222.756 26.172 222.404C26.236 222.044 26.268 221.592 26.268 221.048Z" fill="black"/>
<path d="M23.708 190.895H19.964V192.551C20.124 192.375 20.348 192.231 20.636 192.119C20.924 192.007 21.236 191.951 21.572 191.951C22.172 191.951 22.668 192.087 23.06 192.359C23.46 192.631 23.752 192.983 23.936 193.415C24.12 193.847 24.212 194.315 24.212 194.819C24.212 195.755 23.948 196.499 23.42 197.051C22.892 197.595 22.148 197.867 21.188 197.867C20.548 197.867 19.992 197.759 19.52 197.543C19.048 197.319 18.684 197.011 18.428 196.619C18.172 196.227 18.032 195.775 18.008 195.263H20.012C20.06 195.511 20.176 195.719 20.36 195.887C20.544 196.047 20.796 196.127 21.116 196.127C21.492 196.127 21.772 196.007 21.956 195.767C22.14 195.527 22.232 195.207 22.232 194.807C22.232 194.415 22.136 194.115 21.944 193.907C21.752 193.699 21.472 193.595 21.104 193.595C20.832 193.595 20.608 193.663 20.432 193.799C20.256 193.927 20.14 194.099 20.084 194.315H18.104V189.095H23.708V190.895ZM25.3447 193.367C25.3447 191.991 25.6087 190.907 26.1367 190.115C26.6727 189.323 27.5327 188.927 28.7167 188.927C29.9007 188.927 30.7567 189.323 31.2847 190.115C31.8207 190.907 32.0887 191.991 32.0887 193.367C32.0887 194.759 31.8207 195.851 31.2847 196.643C30.7567 197.435 29.9007 197.831 28.7167 197.831C27.5327 197.831 26.6727 197.435 26.1367 196.643C25.6087 195.851 25.3447 194.759 25.3447 193.367ZM30.0727 193.367C30.0727 192.559 29.9847 191.939 29.8087 191.507C29.6327 191.067 29.2687 190.847 28.7167 190.847C28.1647 190.847 27.8007 191.067 27.6247 191.507C27.4487 191.939 27.3607 192.559 27.3607 193.367C27.3607 193.911 27.3927 194.363 27.4567 194.723C27.5207 195.075 27.6487 195.363 27.8407 195.587C28.0407 195.803 28.3327 195.911 28.7167 195.911C29.1007 195.911 29.3887 195.803 29.5807 195.587C29.7807 195.363 29.9127 195.075 29.9767 194.723C30.0407 194.363 30.0727 193.911 30.0727 193.367Z" fill="black"/>
<path d="M14.324 163.334V161.426H17.648V170.186H15.512V163.334H14.324ZM19.0517 165.686C19.0517 164.31 19.3157 163.226 19.8437 162.434C20.3797 161.642 21.2397 161.246 22.4237 161.246C23.6077 161.246 24.4637 161.642 24.9917 162.434C25.5277 163.226 25.7957 164.31 25.7957 165.686C25.7957 167.078 25.5277 168.17 24.9917 168.962C24.4637 169.754 23.6077 170.15 22.4237 170.15C21.2397 170.15 20.3797 169.754 19.8437 168.962C19.3157 168.17 19.0517 167.078 19.0517 165.686ZM23.7797 165.686C23.7797 164.878 23.6917 164.258 23.5157 163.826C23.3397 163.386 22.9757 163.166 22.4237 163.166C21.8717 163.166 21.5077 163.386 21.3317 163.826C21.1557 164.258 21.0677 164.878 21.0677 165.686C21.0677 166.23 21.0997 166.682 21.1637 167.042C21.2277 167.394 21.3557 167.682 21.5477 167.906C21.7477 168.122 22.0397 168.23 22.4237 168.23C22.8077 168.23 23.0957 168.122 23.2877 167.906C23.4877 167.682 23.6197 167.394 23.6837 167.042C23.7477 166.682 23.7797 166.23 23.7797 165.686ZM26.8798 165.686C26.8798 164.31 27.1438 163.226 27.6718 162.434C28.2078 161.642 29.0678 161.246 30.2518 161.246C31.4358 161.246 32.2918 161.642 32.8198 162.434C33.3558 163.226 33.6238 164.31 33.6238 165.686C33.6238 167.078 33.3558 168.17 32.8198 168.962C32.2918 169.754 31.4358 170.15 30.2518 170.15C29.0678 170.15 28.2078 169.754 27.6718 168.962C27.1438 168.17 26.8798 167.078 26.8798 165.686ZM31.6078 165.686C31.6078 164.878 31.5198 164.258 31.3438 163.826C31.1678 163.386 30.8038 163.166 30.2518 163.166C29.6998 163.166 29.3358 163.386 29.1598 163.826C28.9838 164.258 28.8958 164.878 28.8958 165.686C28.8958 166.23 28.9278 166.682 28.9918 167.042C29.0558 167.394 29.1838 167.682 29.3758 167.906C29.5758 168.122 29.8678 168.23 30.2518 168.23C30.6358 168.23 30.9238 168.122 31.1158 167.906C31.3158 167.682 31.4478 167.394 31.5118 167.042C31.5758 166.682 31.6078 166.23 31.6078 165.686Z" fill="black"/>
<path d="M14.324 135.654V133.746H17.648V142.506H15.512V135.654H14.324ZM25.2197 135.534H21.4757V137.19C21.6357 137.014 21.8597 136.87 22.1477 136.758C22.4357 136.646 22.7477 136.59 23.0837 136.59C23.6837 136.59 24.1797 136.726 24.5717 136.998C24.9717 137.27 25.2637 137.622 25.4477 138.054C25.6317 138.486 25.7237 138.954 25.7237 139.458C25.7237 140.394 25.4597 141.138 24.9317 141.69C24.4037 142.234 23.6597 142.506 22.6997 142.506C22.0597 142.506 21.5037 142.398 21.0317 142.182C20.5597 141.958 20.1957 141.65 19.9397 141.258C19.6837 140.866 19.5437 140.414 19.5197 139.902H21.5237C21.5717 140.15 21.6877 140.358 21.8717 140.526C22.0557 140.686 22.3077 140.766 22.6277 140.766C23.0037 140.766 23.2837 140.646 23.4677 140.406C23.6517 140.166 23.7437 139.846 23.7437 139.446C23.7437 139.054 23.6477 138.754 23.4557 138.546C23.2637 138.338 22.9837 138.234 22.6157 138.234C22.3437 138.234 22.1197 138.302 21.9437 138.438C21.7677 138.566 21.6517 138.738 21.5957 138.954H19.6157V133.734H25.2197V135.534ZM26.8564 138.006C26.8564 136.63 27.1204 135.546 27.6484 134.754C28.1844 133.962 29.0444 133.566 30.2284 133.566C31.4124 133.566 32.2684 133.962 32.7964 134.754C33.3324 135.546 33.6004 136.63 33.6004 138.006C33.6004 139.398 33.3324 140.49 32.7964 141.282C32.2684 142.074 31.4124 142.47 30.2284 142.47C29.0444 142.47 28.1844 142.074 27.6484 141.282C27.1204 140.49 26.8564 139.398 26.8564 138.006ZM31.5844 138.006C31.5844 137.198 31.4964 136.578 31.3204 136.146C31.1444 135.706 30.7804 135.486 30.2284 135.486C29.6764 135.486 29.3124 135.706 29.1364 136.146C28.9604 136.578 28.8724 137.198 28.8724 138.006C28.8724 138.55 28.9044 139.002 28.9684 139.362C29.0324 139.714 29.1604 140.002 29.3524 140.226C29.5524 140.442 29.8444 140.55 30.2284 140.55C30.6124 140.55 30.9004 140.442 31.0924 140.226C31.2924 140.002 31.4244 139.714 31.4884 139.362C31.5524 139.002 31.5844 138.55 31.5844 138.006Z" fill="black"/>
<path d="M13.468 113.181C13.74 112.965 13.864 112.865 13.84 112.881C14.624 112.233 15.24 111.701 15.688 111.285C16.144 110.869 16.528 110.433 16.84 109.977C17.152 109.521 17.308 109.077 17.308 108.645C17.308 108.317 17.232 108.061 17.08 107.877C16.928 107.693 16.7 107.601 16.396 107.601C16.092 107.601 15.852 107.717 15.676 107.949C15.508 108.173 15.424 108.493 15.424 108.909H13.444C13.46 108.229 13.604 107.661 13.876 107.205C14.156 106.749 14.52 106.413 14.968 106.197C15.424 105.981 15.928 105.873 16.48 105.873C17.432 105.873 18.148 106.117 18.628 106.605C19.116 107.093 19.36 107.729 19.36 108.513C19.36 109.369 19.068 110.165 18.484 110.901C17.9 111.629 17.156 112.341 16.252 113.037H19.492V114.705H13.468V113.181ZM20.3955 110.325C20.3955 108.949 20.6595 107.865 21.1875 107.073C21.7235 106.281 22.5835 105.885 23.7675 105.885C24.9515 105.885 25.8075 106.281 26.3355 107.073C26.8715 107.865 27.1395 108.949 27.1395 110.325C27.1395 111.717 26.8715 112.809 26.3355 113.601C25.8075 114.393 24.9515 114.789 23.7675 114.789C22.5835 114.789 21.7235 114.393 21.1875 113.601C20.6595 112.809 20.3955 111.717 20.3955 110.325ZM25.1235 110.325C25.1235 109.517 25.0355 108.897 24.8595 108.465C24.6835 108.025 24.3195 107.805 23.7675 107.805C23.2155 107.805 22.8515 108.025 22.6755 108.465C22.4995 108.897 22.4115 109.517 22.4115 110.325C22.4115 110.869 22.4435 111.321 22.5075 111.681C22.5715 112.033 22.6995 112.321 22.8915 112.545C23.0915 112.761 23.3835 112.869 23.7675 112.869C24.1515 112.869 24.4395 112.761 24.6315 112.545C24.8315 112.321 24.9635 112.033 25.0275 111.681C25.0915 111.321 25.1235 110.869 25.1235 110.325ZM28.2236 110.325C28.2236 108.949 28.4876 107.865 29.0156 107.073C29.5516 106.281 30.4116 105.885 31.5956 105.885C32.7796 105.885 33.6356 106.281 34.1636 107.073C34.6996 107.865 34.9676 108.949 34.9676 110.325C34.9676 111.717 34.6996 112.809 34.1636 113.601C33.6356 114.393 32.7796 114.789 31.5956 114.789C30.4116 114.789 29.5516 114.393 29.0156 113.601C28.4876 112.809 28.2236 111.717 28.2236 110.325ZM32.9516 110.325C32.9516 109.517 32.8636 108.897 32.6876 108.465C32.5116 108.025 32.1476 107.805 31.5956 107.805C31.0436 107.805 30.6796 108.025 30.5036 108.465C30.3276 108.897 30.2396 109.517 30.2396 110.325C30.2396 110.869 30.2716 111.321 30.3356 111.681C30.3996 112.033 30.5276 112.321 30.7196 112.545C30.9196 112.761 31.2116 112.869 31.5956 112.869C31.9796 112.869 32.2676 112.761 32.4596 112.545C32.6596 112.321 32.7916 112.033 32.8556 111.681C32.9196 111.321 32.9516 110.869 32.9516 110.325Z" fill="black"/>
<path d="M13.468 85.5005C13.74 85.2845 13.864 85.1845 13.84 85.2005C14.624 84.5525 15.24 84.0205 15.688 83.6045C16.144 83.1885 16.528 82.7525 16.84 82.2965C17.152 81.8405 17.308 81.3965 17.308 80.9645C17.308 80.6365 17.232 80.3805 17.08 80.1965C16.928 80.0125 16.7 79.9205 16.396 79.9205C16.092 79.9205 15.852 80.0365 15.676 80.2685C15.508 80.4925 15.424 80.8125 15.424 81.2285H13.444C13.46 80.5485 13.604 79.9805 13.876 79.5245C14.156 79.0685 14.52 78.7325 14.968 78.5165C15.424 78.3005 15.928 78.1925 16.48 78.1925C17.432 78.1925 18.148 78.4365 18.628 78.9245C19.116 79.4125 19.36 80.0485 19.36 80.8325C19.36 81.6885 19.068 82.4845 18.484 83.2205C17.9 83.9485 17.156 84.6605 16.252 85.3565H19.492V87.0245H13.468V85.5005ZM26.5635 80.1725H22.8195V81.8285C22.9795 81.6525 23.2035 81.5085 23.4915 81.3965C23.7795 81.2845 24.0915 81.2285 24.4275 81.2285C25.0275 81.2285 25.5235 81.3645 25.9155 81.6365C26.3155 81.9085 26.6075 82.2605 26.7915 82.6925C26.9755 83.1245 27.0675 83.5925 27.0675 84.0965C27.0675 85.0325 26.8035 85.7765 26.2755 86.3285C25.7475 86.8725 25.0035 87.1445 24.0435 87.1445C23.4035 87.1445 22.8475 87.0365 22.3755 86.8205C21.9035 86.5965 21.5395 86.2885 21.2835 85.8965C21.0275 85.5045 20.8875 85.0525 20.8635 84.5405H22.8675C22.9155 84.7885 23.0315 84.9965 23.2155 85.1645C23.3995 85.3245 23.6515 85.4045 23.9715 85.4045C24.3475 85.4045 24.6275 85.2845 24.8115 85.0445C24.9955 84.8045 25.0875 84.4845 25.0875 84.0845C25.0875 83.6925 24.9915 83.3925 24.7995 83.1845C24.6075 82.9765 24.3275 82.8725 23.9595 82.8725C23.6875 82.8725 23.4635 82.9405 23.2875 83.0765C23.1115 83.2045 22.9955 83.3765 22.9395 83.5925H20.9595V78.3725H26.5635V80.1725ZM28.2002 82.6445C28.2002 81.2685 28.4642 80.1845 28.9922 79.3925C29.5282 78.6005 30.3882 78.2045 31.5722 78.2045C32.7562 78.2045 33.6122 78.6005 34.1402 79.3925C34.6762 80.1845 34.9442 81.2685 34.9442 82.6445C34.9442 84.0365 34.6762 85.1285 34.1402 85.9205C33.6122 86.7125 32.7562 87.1085 31.5722 87.1085C30.3882 87.1085 29.5282 86.7125 28.9922 85.9205C28.4642 85.1285 28.2002 84.0365 28.2002 82.6445ZM32.9282 82.6445C32.9282 81.8365 32.8402 81.2165 32.6642 80.7845C32.4882 80.3445 32.1242 80.1245 31.5722 80.1245C31.0202 80.1245 30.6562 80.3445 30.4802 80.7845C30.3042 81.2165 30.2162 81.8365 30.2162 82.6445C30.2162 83.1885 30.2482 83.6405 30.3122 84.0005C30.3762 84.3525 30.5042 84.6405 30.6962 84.8645C30.8962 85.0805 31.1882 85.1885 31.5722 85.1885C31.9562 85.1885 32.2442 85.0805 32.4362 84.8645C32.6362 84.6405 32.7682 84.3525 32.8322 84.0005C32.8962 83.6405 32.9282 83.1885 32.9282 82.6445Z" fill="black"/>
<g filter="url(#filter2_d_66_140)">
<rect x="311" y="18.7832" width="67" height="30.6464" rx="6" fill="#FDDF00"/>
<rect x="311.5" y="19.2832" width="66" height="29.6464" rx="5.5" stroke="black"/>
</g>
<path d="M325.74 30.7419L323.13 37.6919H321.81L319.19 30.7419H320.41L322.47 36.5219L324.54 30.7419H325.74ZM327.273 31.4519C327.067 31.4519 326.893 31.3819 326.753 31.2419C326.613 31.1019 326.543 30.9286 326.543 30.7219C326.543 30.5152 326.613 30.3419 326.753 30.2019C326.893 30.0619 327.067 29.9919 327.273 29.9919C327.473 29.9919 327.643 30.0619 327.783 30.2019C327.923 30.3419 327.993 30.5152 327.993 30.7219C327.993 30.9286 327.923 31.1019 327.783 31.2419C327.643 31.3819 327.473 31.4519 327.273 31.4519ZM327.833 32.1819V37.6919H326.693V32.1819H327.833ZM334.38 34.8019C334.38 35.0086 334.367 35.1952 334.34 35.3619H330.13C330.163 35.8019 330.327 36.1552 330.62 36.4219C330.913 36.6886 331.273 36.8219 331.7 36.8219C332.313 36.8219 332.747 36.5652 333 36.0519H334.23C334.063 36.5586 333.76 36.9752 333.32 37.3019C332.887 37.6219 332.347 37.7819 331.7 37.7819C331.173 37.7819 330.7 37.6652 330.28 37.4319C329.867 37.1919 329.54 36.8586 329.3 36.4319C329.067 35.9986 328.95 35.4986 328.95 34.9319C328.95 34.3652 329.063 33.8686 329.29 33.4419C329.523 33.0086 329.847 32.6752 330.26 32.4419C330.68 32.2086 331.16 32.0919 331.7 32.0919C332.22 32.0919 332.683 32.2052 333.09 32.4319C333.497 32.6586 333.813 32.9786 334.04 33.3919C334.267 33.7986 334.38 34.2686 334.38 34.8019ZM333.19 34.4419C333.183 34.0219 333.033 33.6852 332.74 33.4319C332.447 33.1786 332.083 33.0519 331.65 33.0519C331.257 33.0519 330.92 33.1786 330.64 33.4319C330.36 33.6786 330.193 34.0152 330.14 34.4419H333.19ZM342.902 32.1819L341.192 37.6919H339.992L338.882 33.6219L337.772 37.6919H336.572L334.852 32.1819H336.012L337.162 36.6119L338.332 32.1819H339.522L340.642 36.5919L341.782 32.1819H342.902ZM353.672 30.7419V37.6919H352.532V32.9319L350.412 37.6919H349.622L347.492 32.9319V37.6919H346.352V30.7419H347.582L350.022 36.1919L352.452 30.7419H353.672ZM357.56 37.7819C357.04 37.7819 356.57 37.6652 356.15 37.4319C355.73 37.1919 355.4 36.8586 355.16 36.4319C354.92 35.9986 354.8 35.4986 354.8 34.9319C354.8 34.3719 354.923 33.8752 355.17 33.4419C355.417 33.0086 355.753 32.6752 356.18 32.4419C356.607 32.2086 357.083 32.0919 357.61 32.0919C358.137 32.0919 358.613 32.2086 359.04 32.4419C359.467 32.6752 359.803 33.0086 360.05 33.4419C360.297 33.8752 360.42 34.3719 360.42 34.9319C360.42 35.4919 360.293 35.9886 360.04 36.4219C359.787 36.8552 359.44 37.1919 359 37.4319C358.567 37.6652 358.087 37.7819 357.56 37.7819ZM357.56 36.7919C357.853 36.7919 358.127 36.7219 358.38 36.5819C358.64 36.4419 358.85 36.2319 359.01 35.9519C359.17 35.6719 359.25 35.3319 359.25 34.9319C359.25 34.5319 359.173 34.1952 359.02 33.9219C358.867 33.6419 358.663 33.4319 358.41 33.2919C358.157 33.1519 357.883 33.0819 357.59 33.0819C357.297 33.0819 357.023 33.1519 356.77 33.2919C356.523 33.4319 356.327 33.6419 356.18 33.9219C356.033 34.1952 355.96 34.5319 355.96 34.9319C355.96 35.5252 356.11 35.9852 356.41 36.3119C356.717 36.6319 357.1 36.7919 357.56 36.7919ZM362.687 32.9819C362.854 32.7019 363.074 32.4852 363.347 32.3319C363.627 32.1719 363.957 32.0919 364.337 32.0919V33.2719H364.047C363.6 33.2719 363.26 33.3852 363.027 33.6119C362.8 33.8386 362.687 34.2319 362.687 34.7919V37.6919H361.547V32.1819H362.687V32.9819ZM370.435 34.8019C370.435 35.0086 370.421 35.1952 370.395 35.3619H366.185C366.218 35.8019 366.381 36.1552 366.675 36.4219C366.968 36.6886 367.328 36.8219 367.755 36.8219C368.368 36.8219 368.801 36.5652 369.055 36.0519H370.285C370.118 36.5586 369.815 36.9752 369.375 37.3019C368.941 37.6219 368.401 37.7819 367.755 37.7819C367.228 37.7819 366.755 37.6652 366.335 37.4319C365.921 37.1919 365.595 36.8586 365.355 36.4319C365.121 35.9986 365.005 35.4986 365.005 34.9319C365.005 34.3652 365.118 33.8686 365.345 33.4419C365.578 33.0086 365.901 32.6752 366.315 32.4419C366.735 32.2086 367.215 32.0919 367.755 32.0919C368.275 32.0919 368.738 32.2052 369.145 32.4319C369.551 32.6586 369.868 32.9786 370.095 33.3919C370.321 33.7986 370.435 34.2686 370.435 34.8019ZM369.245 34.4419C369.238 34.0219 369.088 33.6852 368.795 33.4319C368.501 33.1786 368.138 33.0519 367.705 33.0519C367.311 33.0519 366.975 33.1786 366.695 33.4319C366.415 33.6786 366.248 34.0152 366.195 34.4419H369.245Z" fill="black"/>
<path d="M18.964 30.1872H15.628L15.076 31.7832H13.312L16.324 23.3952H18.28L21.292 31.7832H19.516L18.964 30.1872ZM18.508 28.8432L17.296 25.3392L16.084 28.8432H18.508ZM24.0978 22.9032V31.7832H22.4178V22.9032H24.0978ZM27.4377 22.9032V31.7832H25.7577V22.9032H27.4377ZM37.6569 23.4072V24.7632H35.4249V31.7832H33.7449V24.7632H31.5129V23.4072H37.6569ZM40.5627 26.1672C40.7787 25.8152 41.0587 25.5392 41.4027 25.3392C41.7547 25.1392 42.1547 25.0392 42.6027 25.0392V26.8032H42.1587C41.6307 26.8032 41.2307 26.9272 40.9587 27.1752C40.6947 27.4232 40.5627 27.8552 40.5627 28.4712V31.7832H38.8827V25.1352H40.5627V26.1672ZM43.3022 28.4352C43.3022 27.7632 43.4342 27.1672 43.6982 26.6472C43.9703 26.1272 44.3343 25.7272 44.7903 25.4472C45.2543 25.1672 45.7703 25.0272 46.3383 25.0272C46.8343 25.0272 47.2663 25.1272 47.6343 25.3272C48.0103 25.5272 48.3103 25.7792 48.5343 26.0832V25.1352H50.2263V31.7832H48.5343V30.8112C48.3183 31.1232 48.0183 31.3832 47.6343 31.5912C47.2583 31.7912 46.8223 31.8912 46.3263 31.8912C45.7663 31.8912 45.2543 31.7472 44.7903 31.4592C44.3343 31.1712 43.9703 30.7672 43.6982 30.2472C43.4342 29.7192 43.3022 29.1152 43.3022 28.4352ZM48.5343 28.4592C48.5343 28.0512 48.4543 27.7032 48.2943 27.4152C48.1343 27.1192 47.9183 26.8952 47.6463 26.7432C47.3743 26.5832 47.0823 26.5032 46.7703 26.5032C46.4583 26.5032 46.1703 26.5792 45.9062 26.7312C45.6423 26.8832 45.4263 27.1072 45.2583 27.4032C45.0983 27.6912 45.0183 28.0352 45.0183 28.4352C45.0183 28.8352 45.0983 29.1872 45.2583 29.4912C45.4263 29.7872 45.6423 30.0152 45.9062 30.1752C46.1783 30.3352 46.4663 30.4152 46.7703 30.4152C47.0823 30.4152 47.3743 30.3392 47.6463 30.1872C47.9183 30.0272 48.1343 29.8032 48.2943 29.5152C48.4543 29.2192 48.5343 28.8672 48.5343 28.4592ZM55.5511 25.0392C56.3431 25.0392 56.9831 25.2912 57.4711 25.7952C57.9591 26.2912 58.2031 26.9872 58.2031 27.8832V31.7832H56.5231V28.1112C56.5231 27.5832 56.3911 27.1792 56.1271 26.8992C55.8631 26.6112 55.5031 26.4672 55.0471 26.4672C54.5831 26.4672 54.2151 26.6112 53.9431 26.8992C53.6791 27.1792 53.5471 27.5832 53.5471 28.1112V31.7832H51.8671V25.1352H53.5471V25.9632C53.7711 25.6752 54.0551 25.4512 54.3991 25.2912C54.7511 25.1232 55.1351 25.0392 55.5511 25.0392ZM62.3447 31.8912C61.8007 31.8912 61.3127 31.7952 60.8807 31.6032C60.4487 31.4032 60.1047 31.1352 59.8487 30.7992C59.6007 30.4632 59.4647 30.0912 59.4407 29.6832H61.1327C61.1647 29.9392 61.2887 30.1512 61.5047 30.3192C61.7287 30.4872 62.0047 30.5712 62.3327 30.5712C62.6527 30.5712 62.9007 30.5072 63.0767 30.3792C63.2607 30.2512 63.3527 30.0872 63.3527 29.8872C63.3527 29.6712 63.2407 29.5112 63.0167 29.4072C62.8007 29.2952 62.4527 29.1752 61.9727 29.0472C61.4767 28.9272 61.0687 28.8032 60.7487 28.6752C60.4367 28.5472 60.1647 28.3512 59.9327 28.0872C59.7087 27.8232 59.5967 27.4672 59.5967 27.0192C59.5967 26.6512 59.7007 26.3152 59.9087 26.0112C60.1247 25.7072 60.4287 25.4672 60.8207 25.2912C61.2207 25.1152 61.6887 25.0272 62.2247 25.0272C63.0167 25.0272 63.6487 25.2272 64.1207 25.6272C64.5927 26.0192 64.8527 26.5512 64.9007 27.2232H63.2927C63.2687 26.9592 63.1567 26.7512 62.9567 26.5992C62.7647 26.4392 62.5047 26.3592 62.1767 26.3592C61.8727 26.3592 61.6367 26.4152 61.4687 26.5272C61.3087 26.6392 61.2287 26.7952 61.2287 26.9952C61.2287 27.2192 61.3407 27.3912 61.5647 27.5112C61.7887 27.6232 62.1367 27.7392 62.6087 27.8592C63.0887 27.9792 63.4847 28.1032 63.7967 28.2312C64.1087 28.3592 64.3767 28.5592 64.6007 28.8312C64.8327 29.0952 64.9527 29.4472 64.9607 29.8872C64.9607 30.2712 64.8527 30.6152 64.6367 30.9192C64.4287 31.2232 64.1247 31.4632 63.7247 31.6392C63.3327 31.8072 62.8727 31.8912 62.3447 31.8912ZM65.9077 28.4352C65.9077 27.7632 66.0397 27.1672 66.3037 26.6472C66.5757 26.1272 66.9397 25.7272 67.3957 25.4472C67.8597 25.1672 68.3757 25.0272 68.9437 25.0272C69.4397 25.0272 69.8717 25.1272 70.2397 25.3272C70.6157 25.5272 70.9157 25.7792 71.1397 26.0832V25.1352H72.8317V31.7832H71.1397V30.8112C70.9237 31.1232 70.6237 31.3832 70.2397 31.5912C69.8637 31.7912 69.4277 31.8912 68.9317 31.8912C68.3717 31.8912 67.8597 31.7472 67.3957 31.4592C66.9397 31.1712 66.5757 30.7672 66.3037 30.2472C66.0397 29.7192 65.9077 29.1152 65.9077 28.4352ZM71.1397 28.4592C71.1397 28.0512 71.0597 27.7032 70.8997 27.4152C70.7397 27.1192 70.5237 26.8952 70.2517 26.7432C69.9797 26.5832 69.6877 26.5032 69.3757 26.5032C69.0637 26.5032 68.7757 26.5792 68.5117 26.7312C68.2477 26.8832 68.0317 27.1072 67.8637 27.4032C67.7037 27.6912 67.6237 28.0352 67.6237 28.4352C67.6237 28.8352 67.7037 29.1872 67.8637 29.4912C68.0317 29.7872 68.2477 30.0152 68.5117 30.1752C68.7837 30.3352 69.0717 30.4152 69.3757 30.4152C69.6877 30.4152 69.9797 30.3392 70.2517 30.1872C70.5237 30.0272 70.7397 29.8032 70.8997 29.5152C71.0597 29.2192 71.1397 28.8672 71.1397 28.4592ZM74.0405 28.4592C74.0405 27.7712 74.1805 27.1712 74.4605 26.6592C74.7405 26.1392 75.1285 25.7392 75.6245 25.4592C76.1205 25.1712 76.6885 25.0272 77.3285 25.0272C78.1525 25.0272 78.8325 25.2352 79.3685 25.6512C79.9125 26.0592 80.2765 26.6352 80.4605 27.3792H78.6485C78.5525 27.0912 78.3885 26.8672 78.1565 26.7072C77.9325 26.5392 77.6525 26.4552 77.3165 26.4552C76.8365 26.4552 76.4565 26.6312 76.1765 26.9832C75.8965 27.3272 75.7565 27.8192 75.7565 28.4592C75.7565 29.0912 75.8965 29.5832 76.1765 29.9352C76.4565 30.2792 76.8365 30.4512 77.3165 30.4512C77.9965 30.4512 78.4405 30.1472 78.6485 29.5392H80.4605C80.2765 30.2592 79.9125 30.8312 79.3685 31.2552C78.8245 31.6792 78.1445 31.8912 77.3285 31.8912C76.6885 31.8912 76.1205 31.7512 75.6245 31.4712C75.1285 31.1832 74.7405 30.7832 74.4605 30.2712C74.1805 29.7512 74.0405 29.1472 74.0405 28.4592ZM83.6473 26.5152V29.7312C83.6473 29.9552 83.6993 30.1192 83.8033 30.2232C83.9153 30.3192 84.0993 30.3672 84.3553 30.3672H85.1353V31.7832H84.0793C82.6633 31.7832 81.9553 31.0952 81.9553 29.7192V26.5152H81.1633V25.1352H81.9553V23.4912H83.6473V25.1352H85.1353V26.5152H83.6473ZM87.1956 24.3432C86.8996 24.3432 86.6516 24.2512 86.4516 24.0672C86.2596 23.8752 86.1636 23.6392 86.1636 23.3592C86.1636 23.0792 86.2596 22.8472 86.4516 22.6632C86.6516 22.4712 86.8996 22.3752 87.1956 22.3752C87.4916 22.3752 87.7356 22.4712 87.9276 22.6632C88.1276 22.8472 88.2276 23.0792 88.2276 23.3592C88.2276 23.6392 88.1276 23.8752 87.9276 24.0672C87.7356 24.2512 87.4916 24.3432 87.1956 24.3432ZM88.0236 25.1352V31.7832H86.3436V25.1352H88.0236ZM92.6355 31.8912C91.9955 31.8912 91.4195 31.7512 90.9075 31.4712C90.3955 31.1832 89.9915 30.7792 89.6955 30.2592C89.4075 29.7392 89.2635 29.1392 89.2635 28.4592C89.2635 27.7792 89.4115 27.1792 89.7075 26.6592C90.0115 26.1392 90.4235 25.7392 90.9435 25.4592C91.4635 25.1712 92.0435 25.0272 92.6835 25.0272C93.3235 25.0272 93.9035 25.1712 94.4235 25.4592C94.9435 25.7392 95.3515 26.1392 95.6475 26.6592C95.9515 27.1792 96.1035 27.7792 96.1035 28.4592C96.1035 29.1392 95.9475 29.7392 95.6355 30.2592C95.3315 30.7792 94.9155 31.1832 94.3875 31.4712C93.8675 31.7512 93.2835 31.8912 92.6355 31.8912ZM92.6355 30.4272C92.9395 30.4272 93.2235 30.3552 93.4875 30.2112C93.7595 30.0592 93.9755 29.8352 94.1355 29.5392C94.2955 29.2432 94.3755 28.8832 94.3755 28.4592C94.3755 27.8272 94.2075 27.3432 93.8715 27.0072C93.5435 26.6632 93.1395 26.4912 92.6595 26.4912C92.1795 26.4912 91.7755 26.6632 91.4475 27.0072C91.1275 27.3432 90.9675 27.8272 90.9675 28.4592C90.9675 29.0912 91.1235 29.5792 91.4355 29.9232C91.7555 30.2592 92.1555 30.4272 92.6355 30.4272ZM101.02 25.0392C101.812 25.0392 102.452 25.2912 102.94 25.7952C103.428 26.2912 103.672 26.9872 103.672 27.8832V31.7832H101.992V28.1112C101.992 27.5832 101.86 27.1792 101.596 26.8992C101.332 26.6112 100.972 26.4672 100.516 26.4672C100.052 26.4672 99.6838 26.6112 99.4118 26.8992C99.1478 27.1792 99.0158 27.5832 99.0158 28.1112V31.7832H97.3358V25.1352H99.0158V25.9632C99.2398 25.6752 99.5238 25.4512 99.8678 25.2912C100.22 25.1232 100.604 25.0392 101.02 25.0392ZM107.813 31.8912C107.269 31.8912 106.781 31.7952 106.349 31.6032C105.917 31.4032 105.573 31.1352 105.317 30.7992C105.069 30.4632 104.933 30.0912 104.909 29.6832H106.601C106.633 29.9392 106.757 30.1512 106.973 30.3192C107.197 30.4872 107.473 30.5712 107.801 30.5712C108.121 30.5712 108.369 30.5072 108.545 30.3792C108.729 30.2512 108.821 30.0872 108.821 29.8872C108.821 29.6712 108.709 29.5112 108.485 29.4072C108.269 29.2952 107.921 29.1752 107.441 29.0472C106.945 28.9272 106.537 28.8032 106.217 28.6752C105.905 28.5472 105.633 28.3512 105.401 28.0872C105.177 27.8232 105.065 27.4672 105.065 27.0192C105.065 26.6512 105.169 26.3152 105.377 26.0112C105.593 25.7072 105.897 25.4672 106.289 25.2912C106.689 25.1152 107.157 25.0272 107.693 25.0272C108.485 25.0272 109.117 25.2272 109.589 25.6272C110.061 26.0192 110.321 26.5512 110.369 27.2232H108.761C108.737 26.9592 108.625 26.7512 108.425 26.5992C108.233 26.4392 107.973 26.3592 107.645 26.3592C107.341 26.3592 107.105 26.4152 106.937 26.5272C106.777 26.6392 106.697 26.7952 106.697 26.9952C106.697 27.2192 106.809 27.3912 107.033 27.5112C107.257 27.6232 107.605 27.7392 108.077 27.8592C108.557 27.9792 108.953 28.1032 109.265 28.2312C109.577 28.3592 109.845 28.5592 110.069 28.8312C110.301 29.0952 110.421 29.4472 110.429 29.8872C110.429 30.2712 110.321 30.6152 110.105 30.9192C109.897 31.2232 109.593 31.4632 109.193 31.6392C108.801 31.8072 108.341 31.8912 107.813 31.8912Z" fill="black"/>
<path d="M54.024 235.907V241.643C54.024 242.531 53.772 243.215 53.268 243.695C52.772 244.175 52.1 244.415 51.252 244.415C50.364 244.415 49.652 244.163 49.116 243.659C48.58 243.155 48.312 242.439 48.312 241.511H50.352C50.352 241.863 50.424 242.131 50.568 242.315C50.712 242.491 50.92 242.579 51.192 242.579C51.44 242.579 51.632 242.499 51.768 242.339C51.904 242.179 51.972 241.947 51.972 241.643V235.907H54.024ZM55.2735 240.971C55.2735 240.283 55.4015 239.679 55.6575 239.159C55.9215 238.639 56.2775 238.239 56.7255 237.959C57.1735 237.679 57.6735 237.539 58.2255 237.539C58.6975 237.539 59.1095 237.635 59.4615 237.827C59.8215 238.019 60.0975 238.271 60.2895 238.583V237.635H62.3415V244.331H60.2895V243.383C60.0895 243.695 59.8095 243.947 59.4495 244.139C59.0975 244.331 58.6855 244.427 58.2135 244.427C57.6695 244.427 57.1735 244.287 56.7255 244.007C56.2775 243.719 55.9215 243.315 55.6575 242.795C55.4015 242.267 55.2735 241.659 55.2735 240.971ZM60.2895 240.983C60.2895 240.471 60.1455 240.067 59.8575 239.771C59.5775 239.475 59.2335 239.327 58.8255 239.327C58.4175 239.327 58.0695 239.475 57.7815 239.771C57.5015 240.059 57.3615 240.459 57.3615 240.971C57.3615 241.483 57.5015 241.891 57.7815 242.195C58.0695 242.491 58.4175 242.639 58.8255 242.639C59.2335 242.639 59.5775 242.491 59.8575 242.195C60.1455 241.899 60.2895 241.495 60.2895 240.983ZM67.906 237.563C68.69 237.563 69.314 237.819 69.778 238.331C70.25 238.835 70.486 239.531 70.486 240.419V244.331H68.446V240.695C68.446 240.247 68.33 239.899 68.098 239.651C67.866 239.403 67.554 239.279 67.162 239.279C66.77 239.279 66.458 239.403 66.226 239.651C65.994 239.899 65.878 240.247 65.878 240.695V244.331H63.826V237.635H65.878V238.523C66.086 238.227 66.366 237.995 66.718 237.827C67.07 237.651 67.466 237.563 67.906 237.563Z" fill="black"/>
<path d="M91.228 235.907V237.551H87.796V239.327H90.364V240.923H87.796V244.331H85.744V235.907H91.228ZM98.6185 240.875C98.6185 241.067 98.6065 241.267 98.5825 241.475H93.9385C93.9705 241.891 94.1025 242.211 94.3345 242.435C94.5745 242.651 94.8665 242.759 95.2105 242.759C95.7225 242.759 96.0785 242.543 96.2785 242.111H98.4625C98.3505 242.551 98.1465 242.947 97.8505 243.299C97.5625 243.651 97.1985 243.927 96.7585 244.127C96.3185 244.327 95.8265 244.427 95.2825 244.427C94.6265 244.427 94.0425 244.287 93.5305 244.007C93.0185 243.727 92.6185 243.327 92.3305 242.807C92.0425 242.287 91.8985 241.679 91.8985 240.983C91.8985 240.287 92.0385 239.679 92.3185 239.159C92.6065 238.639 93.0065 238.239 93.5185 237.959C94.0305 237.679 94.6185 237.539 95.2825 237.539C95.9305 237.539 96.5065 237.675 97.0105 237.947C97.5145 238.219 97.9065 238.607 98.1865 239.111C98.4745 239.615 98.6185 240.203 98.6185 240.875ZM96.5185 240.335C96.5185 239.983 96.3985 239.703 96.1585 239.495C95.9185 239.287 95.6185 239.183 95.2585 239.183C94.9145 239.183 94.6225 239.283 94.3825 239.483C94.1505 239.683 94.0065 239.967 93.9505 240.335H96.5185ZM101.753 238.583C101.945 238.271 102.221 238.019 102.581 237.827C102.941 237.635 103.353 237.539 103.817 237.539C104.369 237.539 104.869 237.679 105.317 237.959C105.765 238.239 106.117 238.639 106.373 239.159C106.637 239.679 106.769 240.283 106.769 240.971C106.769 241.659 106.637 242.267 106.373 242.795C106.117 243.315 105.765 243.719 105.317 244.007C104.869 244.287 104.369 244.427 103.817 244.427C103.345 244.427 102.933 244.335 102.581 244.151C102.229 243.959 101.953 243.707 101.753 243.395V244.331H99.701V235.451H101.753V238.583ZM104.681 240.971C104.681 240.459 104.537 240.059 104.249 239.771C103.969 239.475 103.621 239.327 103.205 239.327C102.797 239.327 102.449 239.475 102.161 239.771C101.881 240.067 101.741 240.471 101.741 240.983C101.741 241.495 101.881 241.899 102.161 242.195C102.449 242.491 102.797 242.639 103.205 242.639C103.613 242.639 103.961 242.491 104.249 242.195C104.537 241.891 104.681 241.483 104.681 240.971Z" fill="black"/>
<path d="M132.284 235.907V244.331H130.232V239.279L128.348 244.331H126.692L124.796 239.267V244.331H122.744V235.907H125.168L127.532 241.739L129.872 235.907H132.284ZM133.352 240.971C133.352 240.283 133.48 239.679 133.736 239.159C134 238.639 134.356 238.239 134.804 237.959C135.252 237.679 135.752 237.539 136.304 237.539C136.776 237.539 137.188 237.635 137.54 237.827C137.9 238.019 138.176 238.271 138.368 238.583V237.635H140.42V244.331H138.368V243.383C138.168 243.695 137.888 243.947 137.528 244.139C137.176 244.331 136.764 244.427 136.292 244.427C135.748 244.427 135.252 244.287 134.804 244.007C134.356 243.719 134 243.315 133.736 242.795C133.48 242.267 133.352 241.659 133.352 240.971ZM138.368 240.983C138.368 240.471 138.224 240.067 137.936 239.771C137.656 239.475 137.312 239.327 136.904 239.327C136.496 239.327 136.148 239.475 135.86 239.771C135.58 240.059 135.44 240.459 135.44 240.971C135.44 241.483 135.58 241.891 135.86 242.195C136.148 242.491 136.496 242.639 136.904 242.639C137.312 242.639 137.656 242.491 137.936 242.195C138.224 241.899 138.368 241.495 138.368 240.983ZM143.956 238.751C144.196 238.383 144.496 238.095 144.856 237.887C145.216 237.671 145.616 237.563 146.056 237.563V239.735H145.492C144.98 239.735 144.596 239.847 144.34 240.071C144.084 240.287 143.956 240.671 143.956 241.223V244.331H141.904V237.635H143.956V238.751Z" fill="black"/>
<path d="M164.988 242.843H161.844L161.34 244.331H159.192L162.24 235.907H164.616L167.664 244.331H165.492L164.988 242.843ZM164.46 241.259L163.416 238.175L162.384 241.259H164.46ZM170.644 238.583C170.844 238.271 171.12 238.019 171.472 237.827C171.824 237.635 172.236 237.539 172.708 237.539C173.26 237.539 173.76 237.679 174.208 237.959C174.656 238.239 175.008 238.639 175.264 239.159C175.528 239.679 175.66 240.283 175.66 240.971C175.66 241.659 175.528 242.267 175.264 242.795C175.008 243.315 174.656 243.719 174.208 244.007C173.76 244.287 173.26 244.427 172.708 244.427C172.244 244.427 171.832 244.331 171.472 244.139C171.12 243.947 170.844 243.699 170.644 243.395V247.523H168.592V237.635H170.644V238.583ZM173.572 240.971C173.572 240.459 173.428 240.059 173.14 239.771C172.86 239.475 172.512 239.327 172.096 239.327C171.688 239.327 171.34 239.475 171.052 239.771C170.772 240.067 170.632 240.471 170.632 240.983C170.632 241.495 170.772 241.899 171.052 242.195C171.34 242.491 171.688 242.639 172.096 242.639C172.504 242.639 172.852 242.491 173.14 242.195C173.428 241.891 173.572 241.483 173.572 240.971ZM178.788 238.751C179.028 238.383 179.328 238.095 179.688 237.887C180.048 237.671 180.448 237.563 180.888 237.563V239.735H180.324C179.812 239.735 179.428 239.847 179.172 240.071C178.916 240.287 178.788 240.671 178.788 241.223V244.331H176.736V237.635H178.788V238.751Z" fill="black"/>
<path d="M206.284 235.907V244.331H204.232V239.279L202.348 244.331H200.692L198.796 239.267V244.331H196.744V235.907H199.168L201.532 241.739L203.872 235.907H206.284ZM207.352 240.971C207.352 240.283 207.48 239.679 207.736 239.159C208 238.639 208.356 238.239 208.804 237.959C209.252 237.679 209.752 237.539 210.304 237.539C210.776 237.539 211.188 237.635 211.54 237.827C211.9 238.019 212.176 238.271 212.368 238.583V237.635H214.42V244.331H212.368V243.383C212.168 243.695 211.888 243.947 211.528 244.139C211.176 244.331 210.764 244.427 210.292 244.427C209.748 244.427 209.252 244.287 208.804 244.007C208.356 243.719 208 243.315 207.736 242.795C207.48 242.267 207.352 241.659 207.352 240.971ZM212.368 240.983C212.368 240.471 212.224 240.067 211.936 239.771C211.656 239.475 211.312 239.327 210.904 239.327C210.496 239.327 210.148 239.475 209.86 239.771C209.58 240.059 209.44 240.459 209.44 240.971C209.44 241.483 209.58 241.891 209.86 242.195C210.148 242.491 210.496 242.639 210.904 242.639C211.312 242.639 211.656 242.491 211.936 242.195C212.224 241.899 212.368 241.495 212.368 240.983ZM222.744 237.635L218.544 247.511H216.336L217.872 244.103L215.148 237.635H217.44L218.988 241.823L220.524 237.635H222.744Z" fill="black"/>
<path d="M239.024 235.907V241.643C239.024 242.531 238.772 243.215 238.268 243.695C237.772 244.175 237.1 244.415 236.252 244.415C235.364 244.415 234.652 244.163 234.116 243.659C233.58 243.155 233.312 242.439 233.312 241.511H235.352C235.352 241.863 235.424 242.131 235.568 242.315C235.712 242.491 235.92 242.579 236.192 242.579C236.44 242.579 236.632 242.499 236.768 242.339C236.904 242.179 236.972 241.947 236.972 241.643V235.907H239.024ZM247.294 237.635V244.331H245.242V243.419C245.034 243.715 244.75 243.955 244.39 244.139C244.038 244.315 243.646 244.403 243.214 244.403C242.702 244.403 242.25 244.291 241.858 244.067C241.466 243.835 241.162 243.503 240.946 243.071C240.73 242.639 240.622 242.131 240.622 241.547V237.635H242.662V241.271C242.662 241.719 242.778 242.067 243.01 242.315C243.242 242.563 243.554 242.687 243.946 242.687C244.346 242.687 244.662 242.563 244.894 242.315C245.126 242.067 245.242 241.719 245.242 241.271V237.635H247.294ZM252.847 237.563C253.631 237.563 254.255 237.819 254.719 238.331C255.191 238.835 255.427 239.531 255.427 240.419V244.331H253.387V240.695C253.387 240.247 253.271 239.899 253.039 239.651C252.807 239.403 252.495 239.279 252.103 239.279C251.711 239.279 251.399 239.403 251.167 239.651C250.935 239.899 250.819 240.247 250.819 240.695V244.331H248.767V237.635H250.819V238.523C251.027 238.227 251.307 237.995 251.659 237.827C252.011 237.651 252.407 237.563 252.847 237.563Z" fill="black"/>
<path d="M276.024 235.907V241.643C276.024 242.531 275.772 243.215 275.268 243.695C274.772 244.175 274.1 244.415 273.252 244.415C272.364 244.415 271.652 244.163 271.116 243.659C270.58 243.155 270.312 242.439 270.312 241.511H272.352C272.352 241.863 272.424 242.131 272.568 242.315C272.712 242.491 272.92 242.579 273.192 242.579C273.44 242.579 273.632 242.499 273.768 242.339C273.904 242.179 273.972 241.947 273.972 241.643V235.907H276.024ZM284.294 237.635V244.331H282.242V243.419C282.034 243.715 281.75 243.955 281.39 244.139C281.038 244.315 280.646 244.403 280.214 244.403C279.702 244.403 279.25 244.291 278.858 244.067C278.466 243.835 278.162 243.503 277.946 243.071C277.73 242.639 277.622 242.131 277.622 241.547V237.635H279.662V241.271C279.662 241.719 279.778 242.067 280.01 242.315C280.242 242.563 280.554 242.687 280.946 242.687C281.346 242.687 281.662 242.563 281.894 242.315C282.126 242.067 282.242 241.719 282.242 241.271V237.635H284.294ZM287.819 235.451V244.331H285.767V235.451H287.819Z" fill="black"/>
<path d="M312.988 242.843H309.844L309.34 244.331H307.192L310.24 235.907H312.616L315.664 244.331H313.492L312.988 242.843ZM312.46 241.259L311.416 238.175L310.384 241.259H312.46ZM323.204 237.635V244.331H321.152V243.419C320.944 243.715 320.66 243.955 320.3 244.139C319.948 244.315 319.556 244.403 319.124 244.403C318.612 244.403 318.16 244.291 317.768 244.067C317.376 243.835 317.072 243.503 316.856 243.071C316.64 242.639 316.532 242.131 316.532 241.547V237.635H318.572V241.271C318.572 241.719 318.688 242.067 318.92 242.315C319.152 242.563 319.464 242.687 319.856 242.687C320.256 242.687 320.572 242.563 320.804 242.315C321.036 242.067 321.152 241.719 321.152 241.271V237.635H323.204ZM327.222 237.539C327.694 237.539 328.106 237.635 328.458 237.827C328.818 238.019 329.094 238.271 329.286 238.583V237.635H331.338V244.319C331.338 244.935 331.214 245.491 330.966 245.987C330.726 246.491 330.354 246.891 329.85 247.187C329.354 247.483 328.734 247.631 327.99 247.631C326.998 247.631 326.194 247.395 325.578 246.923C324.962 246.459 324.61 245.827 324.522 245.027H326.55C326.614 245.283 326.766 245.483 327.006 245.627C327.246 245.779 327.542 245.855 327.894 245.855C328.318 245.855 328.654 245.731 328.902 245.483C329.158 245.243 329.286 244.855 329.286 244.319V243.371C329.086 243.683 328.81 243.939 328.458 244.139C328.106 244.331 327.694 244.427 327.222 244.427C326.67 244.427 326.17 244.287 325.722 244.007C325.274 243.719 324.918 243.315 324.654 242.795C324.398 242.267 324.27 241.659 324.27 240.971C324.27 240.283 324.398 239.679 324.654 239.159C324.918 238.639 325.274 238.239 325.722 237.959C326.17 237.679 326.67 237.539 327.222 237.539ZM329.286 240.983C329.286 240.471 329.142 240.067 328.854 239.771C328.574 239.475 328.23 239.327 327.822 239.327C327.414 239.327 327.066 239.475 326.778 239.771C326.498 240.059 326.358 240.459 326.358 240.971C326.358 241.483 326.498 241.891 326.778 242.195C327.066 242.491 327.414 242.639 327.822 242.639C328.23 242.639 328.574 242.491 328.854 242.195C329.142 241.899 329.286 241.495 329.286 240.983Z" fill="black"/>
<path d="M347.792 244.415C347.176 244.415 346.624 244.315 346.136 244.115C345.648 243.915 345.256 243.619 344.96 243.227C344.672 242.835 344.52 242.363 344.504 241.811H346.688C346.72 242.123 346.828 242.363 347.012 242.531C347.196 242.691 347.436 242.771 347.732 242.771C348.036 242.771 348.276 242.703 348.452 242.567C348.628 242.423 348.716 242.227 348.716 241.979C348.716 241.771 348.644 241.599 348.5 241.463C348.364 241.327 348.192 241.215 347.984 241.127C347.784 241.039 347.496 240.939 347.12 240.827C346.576 240.659 346.132 240.491 345.788 240.323C345.444 240.155 345.148 239.907 344.9 239.579C344.652 239.251 344.528 238.823 344.528 238.295C344.528 237.511 344.812 236.899 345.38 236.459C345.948 236.011 346.688 235.787 347.6 235.787C348.528 235.787 349.276 236.011 349.844 236.459C350.412 236.899 350.716 237.515 350.756 238.307H348.536C348.52 238.035 348.42 237.823 348.236 237.671C348.052 237.511 347.816 237.431 347.528 237.431C347.28 237.431 347.08 237.499 346.928 237.635C346.776 237.763 346.7 237.951 346.7 238.199C346.7 238.471 346.828 238.683 347.084 238.835C347.34 238.987 347.74 239.151 348.284 239.327C348.828 239.511 349.268 239.687 349.604 239.855C349.948 240.023 350.244 240.267 350.492 240.587C350.74 240.907 350.864 241.319 350.864 241.823C350.864 242.303 350.74 242.739 350.492 243.131C350.252 243.523 349.9 243.835 349.436 244.067C348.972 244.299 348.424 244.415 347.792 244.415ZM358.439 240.875C358.439 241.067 358.427 241.267 358.403 241.475H353.759C353.791 241.891 353.923 242.211 354.155 242.435C354.395 242.651 354.687 242.759 355.031 242.759C355.543 242.759 355.899 242.543 356.099 242.111H358.283C358.171 242.551 357.967 242.947 357.671 243.299C357.383 243.651 357.019 243.927 356.579 244.127C356.139 244.327 355.647 244.427 355.103 244.427C354.447 244.427 353.863 244.287 353.351 244.007C352.839 243.727 352.439 243.327 352.151 242.807C351.863 242.287 351.719 241.679 351.719 240.983C351.719 240.287 351.859 239.679 352.139 239.159C352.427 238.639 352.827 238.239 353.339 237.959C353.851 237.679 354.439 237.539 355.103 237.539C355.751 237.539 356.327 237.675 356.831 237.947C357.335 238.219 357.727 238.607 358.007 239.111C358.295 239.615 358.439 240.203 358.439 240.875ZM356.339 240.335C356.339 239.983 356.219 239.703 355.979 239.495C355.739 239.287 355.439 239.183 355.079 239.183C354.735 239.183 354.443 239.283 354.203 239.483C353.971 239.683 353.827 239.967 353.771 240.335H356.339ZM361.573 238.583C361.773 238.271 362.049 238.019 362.401 237.827C362.753 237.635 363.165 237.539 363.637 237.539C364.189 237.539 364.689 237.679 365.137 237.959C365.585 238.239 365.937 238.639 366.193 239.159C366.457 239.679 366.589 240.283 366.589 240.971C366.589 241.659 366.457 242.267 366.193 242.795C365.937 243.315 365.585 243.719 365.137 244.007C364.689 244.287 364.189 244.427 363.637 244.427C363.173 244.427 362.761 244.331 362.401 244.139C362.049 243.947 361.773 243.699 361.573 243.395V247.523H359.521V237.635H361.573V238.583ZM364.501 240.971C364.501 240.459 364.357 240.059 364.069 239.771C363.789 239.475 363.441 239.327 363.025 239.327C362.617 239.327 362.269 239.475 361.981 239.771C361.701 240.067 361.561 240.471 361.561 240.983C361.561 241.495 361.701 241.899 361.981 242.195C362.269 242.491 362.617 242.639 363.025 242.639C363.433 242.639 363.781 242.491 364.069 242.195C364.357 241.891 364.501 241.483 364.501 240.971Z" fill="black"/>
<rect x="48.5" y="161.629" width="23" height="61.3042" rx="4.5" fill="#FDDF00" stroke="#FDB802"/>
<rect x="85.5" y="114.177" width="23" height="108.757" rx="4.5" fill="#FDDF00" stroke="#FDB802"/>
<rect x="122.5" y="141.857" width="23" height="81.076" rx="4.5" fill="#FDDF00" stroke="#FDB802"/>
<rect x="159.5" y="123.074" width="23" height="99.8593" rx="4.5" fill="#FDDF00" stroke="#FDB802"/>
<rect x="196.5" y="86.4961" width="23" height="136.437" rx="4.5" fill="#FDDF00" stroke="#FDB802"/>
<rect x="233.5" y="109.234" width="23" height="113.7" rx="4.5" fill="#FDDF00" stroke="#FDB802"/>
<rect x="270.5" y="180.413" width="23" height="42.5209" rx="4.5" fill="#FDDF00" stroke="#FDB802"/>
<rect x="307.5" y="150.755" width="23" height="72.1787" rx="4.5" fill="#FDDF00" stroke="#FDB802"/>
<rect x="344.5" y="197.219" width="23" height="25.7148" rx="4.5" fill="#FDDF00" stroke="#FDB802"/>
<path d="M241.724 57.2026V60.2086C241.724 60.5806 241.61 60.8746 241.382 61.0906C241.158 61.3066 240.862 61.4146 240.494 61.4146C240.126 61.4146 239.828 61.3066 239.6 61.0906C239.376 60.8746 239.264 60.5806 239.264 60.2086H239.954C239.958 60.3926 240.004 60.5386 240.092 60.6466C240.184 60.7546 240.318 60.8086 240.494 60.8086C240.67 60.8086 240.804 60.7546 240.896 60.6466C240.988 60.5346 241.034 60.3886 241.034 60.2086V57.2026H241.724ZM245.831 58.0666V61.3726H245.147V60.9826C245.039 61.1186 244.897 61.2266 244.721 61.3066C244.549 61.3826 244.365 61.4206 244.169 61.4206C243.909 61.4206 243.675 61.3666 243.467 61.2586C243.263 61.1506 243.101 60.9906 242.981 60.7786C242.865 60.5666 242.807 60.3106 242.807 60.0106V58.0666H243.485V59.9086C243.485 60.2046 243.559 60.4326 243.707 60.5926C243.855 60.7486 244.057 60.8266 244.313 60.8266C244.569 60.8266 244.771 60.7486 244.919 60.5926C245.071 60.4326 245.147 60.2046 245.147 59.9086V58.0666H245.831ZM248.401 58.0126C248.661 58.0126 248.893 58.0666 249.097 58.1746C249.305 58.2826 249.467 58.4426 249.583 58.6546C249.699 58.8666 249.757 59.1226 249.757 59.4226V61.3726H249.079V59.5246C249.079 59.2286 249.005 59.0026 248.857 58.8466C248.709 58.6866 248.507 58.6066 248.251 58.6066C247.995 58.6066 247.791 58.6866 247.639 58.8466C247.491 59.0026 247.417 59.2286 247.417 59.5246V61.3726H246.733V58.0666H247.417V58.4446C247.529 58.3086 247.671 58.2026 247.843 58.1266C248.019 58.0506 248.205 58.0126 248.401 58.0126Z" fill="black"/>
<path d="M240.134 66.1V70.27H239.45V66.1H240.134ZM242.7 66.91C242.96 66.91 243.192 66.964 243.396 67.072C243.604 67.18 243.766 67.34 243.882 67.552C243.998 67.764 244.056 68.02 244.056 68.32V70.27H243.378V68.422C243.378 68.126 243.304 67.9 243.156 67.744C243.008 67.584 242.806 67.504 242.55 67.504C242.294 67.504 242.09 67.584 241.938 67.744C241.79 67.9 241.716 68.126 241.716 68.422V70.27H241.032V66.964H241.716V67.342C241.828 67.206 241.97 67.1 242.142 67.024C242.318 66.948 242.504 66.91 242.7 66.91ZM244.701 68.614C244.701 68.274 244.769 67.976 244.905 67.72C245.045 67.46 245.237 67.26 245.481 67.12C245.725 66.98 246.005 66.91 246.321 66.91C246.721 66.91 247.051 67.006 247.311 67.198C247.575 67.386 247.753 67.656 247.845 68.008H247.107C247.047 67.844 246.951 67.716 246.819 67.624C246.687 67.532 246.521 67.486 246.321 67.486C246.041 67.486 245.817 67.586 245.649 67.786C245.485 67.982 245.403 68.258 245.403 68.614C245.403 68.97 245.485 69.248 245.649 69.448C245.817 69.648 246.041 69.748 246.321 69.748C246.717 69.748 246.979 69.574 247.107 69.226H247.845C247.749 69.562 247.569 69.83 247.305 70.03C247.041 70.226 246.713 70.324 246.321 70.324C246.005 70.324 245.725 70.254 245.481 70.114C245.237 69.97 245.045 69.77 244.905 69.514C244.769 69.254 244.701 68.954 244.701 68.614ZM249.96 70.324C249.648 70.324 249.366 70.254 249.114 70.114C248.862 69.97 248.664 69.77 248.52 69.514C248.376 69.254 248.304 68.954 248.304 68.614C248.304 68.278 248.378 67.98 248.526 67.72C248.674 67.46 248.876 67.26 249.132 67.12C249.388 66.98 249.674 66.91 249.99 66.91C250.306 66.91 250.592 66.98 250.848 67.12C251.104 67.26 251.306 67.46 251.454 67.72C251.602 67.98 251.676 68.278 251.676 68.614C251.676 68.95 251.6 69.248 251.448 69.508C251.296 69.768 251.088 69.97 250.824 70.114C250.564 70.254 250.276 70.324 249.96 70.324ZM249.96 69.73C250.136 69.73 250.3 69.688 250.452 69.604C250.608 69.52 250.734 69.394 250.83 69.226C250.926 69.058 250.974 68.854 250.974 68.614C250.974 68.374 250.928 68.172 250.836 68.008C250.744 67.84 250.622 67.714 250.47 67.63C250.318 67.546 250.154 67.504 249.978 67.504C249.802 67.504 249.638 67.546 249.486 67.63C249.338 67.714 249.22 67.84 249.132 68.008C249.044 68.172 249 68.374 249 68.614C249 68.97 249.09 69.246 249.27 69.442C249.454 69.634 249.684 69.73 249.96 69.73ZM256.354 66.91C256.614 66.91 256.846 66.964 257.05 67.072C257.258 67.18 257.42 67.34 257.536 67.552C257.656 67.764 257.716 68.02 257.716 68.32V70.27H257.038V68.422C257.038 68.126 256.964 67.9 256.816 67.744C256.668 67.584 256.466 67.504 256.21 67.504C255.954 67.504 255.75 67.584 255.598 67.744C255.45 67.9 255.376 68.126 255.376 68.422V70.27H254.698V68.422C254.698 68.126 254.624 67.9 254.476 67.744C254.328 67.584 254.126 67.504 253.87 67.504C253.614 67.504 253.41 67.584 253.258 67.744C253.11 67.9 253.036 68.126 253.036 68.422V70.27H252.352V66.964H253.036V67.342C253.148 67.206 253.29 67.1 253.462 67.024C253.634 66.948 253.818 66.91 254.014 66.91C254.278 66.91 254.514 66.966 254.722 67.078C254.93 67.19 255.09 67.352 255.202 67.564C255.302 67.364 255.458 67.206 255.67 67.09C255.882 66.97 256.11 66.91 256.354 66.91ZM261.617 68.536C261.617 68.66 261.609 68.772 261.593 68.872H259.067C259.087 69.136 259.185 69.348 259.361 69.508C259.537 69.668 259.753 69.748 260.009 69.748C260.377 69.748 260.637 69.594 260.789 69.286H261.527C261.427 69.59 261.245 69.84 260.981 70.036C260.721 70.228 260.397 70.324 260.009 70.324C259.693 70.324 259.409 70.254 259.157 70.114C258.909 69.97 258.713 69.77 258.569 69.514C258.429 69.254 258.359 68.954 258.359 68.614C258.359 68.274 258.427 67.976 258.563 67.72C258.703 67.46 258.897 67.26 259.145 67.12C259.397 66.98 259.685 66.91 260.009 66.91C260.321 66.91 260.599 66.978 260.843 67.114C261.087 67.25 261.277 67.442 261.413 67.69C261.549 67.934 261.617 68.216 261.617 68.536ZM260.903 68.32C260.899 68.068 260.809 67.866 260.633 67.714C260.457 67.562 260.239 67.486 259.979 67.486C259.743 67.486 259.541 67.562 259.373 67.714C259.205 67.862 259.105 68.064 259.073 68.32H260.903Z" fill="black"/>
<path d="M240.134 76.538V77.762H241.574V78.32H240.134V79.598H241.754V80.156H239.45V75.98H241.754V76.538H240.134ZM244.012 78.482L245.08 80.156H244.306L243.592 79.034L242.92 80.156H242.206L243.274 78.53L242.206 76.85H242.98L243.694 77.972L244.366 76.85H245.08L244.012 78.482ZM246.275 77.336C246.391 77.184 246.549 77.056 246.749 76.952C246.949 76.848 247.175 76.796 247.427 76.796C247.715 76.796 247.977 76.868 248.213 77.012C248.453 77.152 248.641 77.35 248.777 77.606C248.913 77.862 248.981 78.156 248.981 78.488C248.981 78.82 248.913 79.118 248.777 79.382C248.641 79.642 248.453 79.846 248.213 79.994C247.977 80.138 247.715 80.21 247.427 80.21C247.175 80.21 246.951 80.16 246.755 80.06C246.559 79.956 246.399 79.828 246.275 79.676V81.728H245.591V76.85H246.275V77.336ZM248.285 78.488C248.285 78.26 248.237 78.064 248.141 77.9C248.049 77.732 247.925 77.606 247.769 77.522C247.617 77.434 247.453 77.39 247.277 77.39C247.105 77.39 246.941 77.434 246.785 77.522C246.633 77.61 246.509 77.738 246.413 77.906C246.321 78.074 246.275 78.272 246.275 78.5C246.275 78.728 246.321 78.928 246.413 79.1C246.509 79.268 246.633 79.396 246.785 79.484C246.941 79.572 247.105 79.616 247.277 79.616C247.453 79.616 247.617 79.572 247.769 79.484C247.925 79.392 248.049 79.26 248.141 79.088C248.237 78.916 248.285 78.716 248.285 78.488ZM252.687 78.422C252.687 78.546 252.679 78.658 252.663 78.758H250.137C250.157 79.022 250.255 79.234 250.431 79.394C250.607 79.554 250.823 79.634 251.079 79.634C251.447 79.634 251.707 79.48 251.859 79.172H252.597C252.497 79.476 252.315 79.726 252.051 79.922C251.791 80.114 251.467 80.21 251.079 80.21C250.763 80.21 250.479 80.14 250.227 80C249.979 79.856 249.783 79.656 249.639 79.4C249.499 79.14 249.429 78.84 249.429 78.5C249.429 78.16 249.497 77.862 249.633 77.606C249.773 77.346 249.967 77.146 250.215 77.006C250.467 76.866 250.755 76.796 251.079 76.796C251.391 76.796 251.669 76.864 251.913 77C252.157 77.136 252.347 77.328 252.483 77.576C252.619 77.82 252.687 78.102 252.687 78.422ZM251.973 78.206C251.969 77.954 251.879 77.752 251.703 77.6C251.527 77.448 251.309 77.372 251.049 77.372C250.813 77.372 250.611 77.448 250.443 77.6C250.275 77.748 250.175 77.95 250.143 78.206H251.973ZM255.028 76.796C255.288 76.796 255.52 76.85 255.724 76.958C255.932 77.066 256.094 77.226 256.21 77.438C256.326 77.65 256.384 77.906 256.384 78.206V80.156H255.706V78.308C255.706 78.012 255.632 77.786 255.484 77.63C255.336 77.47 255.134 77.39 254.878 77.39C254.622 77.39 254.418 77.47 254.266 77.63C254.118 77.786 254.044 78.012 254.044 78.308V80.156H253.36V76.85H254.044V77.228C254.156 77.092 254.298 76.986 254.47 76.91C254.646 76.834 254.832 76.796 255.028 76.796ZM258.457 80.21C258.197 80.21 257.963 80.164 257.755 80.072C257.551 79.976 257.389 79.848 257.269 79.688C257.149 79.524 257.085 79.342 257.077 79.142H257.785C257.797 79.282 257.863 79.4 257.983 79.496C258.107 79.588 258.261 79.634 258.445 79.634C258.637 79.634 258.785 79.598 258.889 79.526C258.997 79.45 259.051 79.354 259.051 79.238C259.051 79.114 258.991 79.022 258.871 78.962C258.755 78.902 258.569 78.836 258.313 78.764C258.065 78.696 257.863 78.63 257.707 78.566C257.551 78.502 257.415 78.404 257.299 78.272C257.187 78.14 257.131 77.966 257.131 77.75C257.131 77.574 257.183 77.414 257.287 77.27C257.391 77.122 257.539 77.006 257.731 76.922C257.927 76.838 258.151 76.796 258.403 76.796C258.779 76.796 259.081 76.892 259.309 77.084C259.541 77.272 259.665 77.53 259.681 77.858H258.997C258.985 77.71 258.925 77.592 258.817 77.504C258.709 77.416 258.563 77.372 258.379 77.372C258.199 77.372 258.061 77.406 257.965 77.474C257.869 77.542 257.821 77.632 257.821 77.744C257.821 77.832 257.853 77.906 257.917 77.966C257.981 78.026 258.059 78.074 258.151 78.11C258.243 78.142 258.379 78.184 258.559 78.236C258.799 78.3 258.995 78.366 259.147 78.434C259.303 78.498 259.437 78.594 259.549 78.722C259.661 78.85 259.719 79.02 259.723 79.232C259.723 79.42 259.671 79.588 259.567 79.736C259.463 79.884 259.315 80 259.123 80.084C258.935 80.168 258.713 80.21 258.457 80.21ZM263.492 78.422C263.492 78.546 263.484 78.658 263.468 78.758H260.942C260.962 79.022 261.06 79.234 261.236 79.394C261.412 79.554 261.628 79.634 261.884 79.634C262.252 79.634 262.512 79.48 262.664 79.172H263.402C263.302 79.476 263.12 79.726 262.856 79.922C262.596 80.114 262.272 80.21 261.884 80.21C261.568 80.21 261.284 80.14 261.032 80C260.784 79.856 260.588 79.656 260.444 79.4C260.304 79.14 260.234 78.84 260.234 78.5C260.234 78.16 260.302 77.862 260.438 77.606C260.578 77.346 260.772 77.146 261.02 77.006C261.272 76.866 261.56 76.796 261.884 76.796C262.196 76.796 262.474 76.864 262.718 77C262.962 77.136 263.152 77.328 263.288 77.576C263.424 77.82 263.492 78.102 263.492 78.422ZM262.778 78.206C262.774 77.954 262.684 77.752 262.508 77.6C262.332 77.448 262.114 77.372 261.854 77.372C261.618 77.372 261.416 77.448 261.248 77.6C261.08 77.748 260.98 77.95 260.948 78.206H262.778Z" fill="black"/>
<path d="M271.264 69.082C271.264 69.282 271.214 69.47 271.114 69.646C271.018 69.822 270.874 69.97 270.682 70.09C270.494 70.21 270.27 70.282 270.01 70.306V70.792H269.62V70.306C269.244 70.27 268.94 70.152 268.708 69.952C268.476 69.752 268.36 69.488 268.36 69.16H269.092C269.104 69.316 269.154 69.446 269.242 69.55C269.33 69.65 269.456 69.714 269.62 69.742V68.422C269.352 68.354 269.134 68.286 268.966 68.218C268.798 68.146 268.654 68.034 268.534 67.882C268.418 67.73 268.36 67.522 268.36 67.258C268.36 66.926 268.476 66.652 268.708 66.436C268.94 66.216 269.244 66.088 269.62 66.052V65.566H270.01V66.052C270.362 66.084 270.644 66.196 270.856 66.388C271.072 66.576 271.194 66.836 271.222 67.168H270.49C270.478 67.044 270.43 66.934 270.346 66.838C270.262 66.738 270.15 66.67 270.01 66.634V67.93C270.278 67.994 270.496 68.062 270.664 68.134C270.832 68.202 270.974 68.312 271.09 68.464C271.206 68.612 271.264 68.818 271.264 69.082ZM269.056 67.222C269.056 67.386 269.104 67.514 269.2 67.606C269.3 67.698 269.44 67.772 269.62 67.828V66.616C269.448 66.636 269.31 66.698 269.206 66.802C269.106 66.906 269.056 67.046 269.056 67.222ZM270.01 69.742C270.186 69.714 270.324 69.644 270.424 69.532C270.524 69.416 270.574 69.278 270.574 69.118C270.574 68.958 270.524 68.834 270.424 68.746C270.328 68.654 270.19 68.58 270.01 68.524V69.742ZM275.034 66.424L273.366 70.27H272.676L274.362 66.496H272.142V65.914H275.034V66.424ZM275.62 68.026C275.62 67.334 275.736 66.794 275.968 66.406C276.204 66.014 276.608 65.818 277.18 65.818C277.752 65.818 278.154 66.014 278.386 66.406C278.622 66.794 278.74 67.334 278.74 68.026C278.74 68.726 278.622 69.274 278.386 69.67C278.154 70.062 277.752 70.258 277.18 70.258C276.608 70.258 276.204 70.062 275.968 69.67C275.736 69.274 275.62 68.726 275.62 68.026ZM278.068 68.026C278.068 67.702 278.046 67.428 278.002 67.204C277.962 66.98 277.878 66.798 277.75 66.658C277.622 66.514 277.432 66.442 277.18 66.442C276.928 66.442 276.738 66.514 276.61 66.658C276.482 66.798 276.396 66.98 276.352 67.204C276.312 67.428 276.292 67.702 276.292 68.026C276.292 68.362 276.312 68.644 276.352 68.872C276.392 69.1 276.476 69.284 276.604 69.424C276.736 69.564 276.928 69.634 277.18 69.634C277.432 69.634 277.622 69.564 277.75 69.424C277.882 69.284 277.968 69.1 278.008 68.872C278.048 68.644 278.068 68.362 278.068 68.026ZM279.464 68.026C279.464 67.334 279.58 66.794 279.812 66.406C280.048 66.014 280.452 65.818 281.024 65.818C281.596 65.818 281.998 66.014 282.23 66.406C282.466 66.794 282.584 67.334 282.584 68.026C282.584 68.726 282.466 69.274 282.23 69.67C281.998 70.062 281.596 70.258 281.024 70.258C280.452 70.258 280.048 70.062 279.812 69.67C279.58 69.274 279.464 68.726 279.464 68.026ZM281.912 68.026C281.912 67.702 281.89 67.428 281.846 67.204C281.806 66.98 281.722 66.798 281.594 66.658C281.466 66.514 281.276 66.442 281.024 66.442C280.772 66.442 280.582 66.514 280.454 66.658C280.326 66.798 280.24 66.98 280.196 67.204C280.156 67.428 280.136 67.702 280.136 68.026C280.136 68.362 280.156 68.644 280.196 68.872C280.236 69.1 280.32 69.284 280.448 69.424C280.58 69.564 280.772 69.634 281.024 69.634C281.276 69.634 281.466 69.564 281.594 69.424C281.726 69.284 281.812 69.1 281.852 68.872C281.892 68.644 281.912 68.362 281.912 68.026ZM283.307 68.026C283.307 67.334 283.423 66.794 283.655 66.406C283.891 66.014 284.295 65.818 284.867 65.818C285.439 65.818 285.841 66.014 286.073 66.406C286.309 66.794 286.427 67.334 286.427 68.026C286.427 68.726 286.309 69.274 286.073 69.67C285.841 70.062 285.439 70.258 284.867 70.258C284.295 70.258 283.891 70.062 283.655 69.67C283.423 69.274 283.307 68.726 283.307 68.026ZM285.755 68.026C285.755 67.702 285.733 67.428 285.689 67.204C285.649 66.98 285.565 66.798 285.437 66.658C285.309 66.514 285.119 66.442 284.867 66.442C284.615 66.442 284.425 66.514 284.297 66.658C284.169 66.798 284.083 66.98 284.039 67.204C283.999 67.428 283.979 67.702 283.979 68.026C283.979 68.362 283.999 68.644 284.039 68.872C284.079 69.1 284.163 69.284 284.291 69.424C284.423 69.564 284.615 69.634 284.867 69.634C285.119 69.634 285.309 69.564 285.437 69.424C285.569 69.284 285.655 69.1 285.695 68.872C285.735 68.644 285.755 68.362 285.755 68.026Z" fill="#FD9D02"/>
<path d="M271.264 78.968C271.264 79.168 271.214 79.356 271.114 79.532C271.018 79.708 270.874 79.856 270.682 79.976C270.494 80.096 270.27 80.168 270.01 80.192V80.678H269.62V80.192C269.244 80.156 268.94 80.038 268.708 79.838C268.476 79.638 268.36 79.374 268.36 79.046H269.092C269.104 79.202 269.154 79.332 269.242 79.436C269.33 79.536 269.456 79.6 269.62 79.628V78.308C269.352 78.24 269.134 78.172 268.966 78.104C268.798 78.032 268.654 77.92 268.534 77.768C268.418 77.616 268.36 77.408 268.36 77.144C268.36 76.812 268.476 76.538 268.708 76.322C268.94 76.102 269.244 75.974 269.62 75.938V75.452H270.01V75.938C270.362 75.97 270.644 76.082 270.856 76.274C271.072 76.462 271.194 76.722 271.222 77.054H270.49C270.478 76.93 270.43 76.82 270.346 76.724C270.262 76.624 270.15 76.556 270.01 76.52V77.816C270.278 77.88 270.496 77.948 270.664 78.02C270.832 78.088 270.974 78.198 271.09 78.35C271.206 78.498 271.264 78.704 271.264 78.968ZM269.056 77.108C269.056 77.272 269.104 77.4 269.2 77.492C269.3 77.584 269.44 77.658 269.62 77.714V76.502C269.448 76.522 269.31 76.584 269.206 76.688C269.106 76.792 269.056 76.932 269.056 77.108ZM270.01 79.628C270.186 79.6 270.324 79.53 270.424 79.418C270.524 79.302 270.574 79.164 270.574 79.004C270.574 78.844 270.524 78.72 270.424 78.632C270.328 78.54 270.19 78.466 270.01 78.41V79.628ZM275.034 76.31L273.366 80.156H272.676L274.362 76.382H272.142V75.8H275.034V76.31ZM275.62 77.912C275.62 77.22 275.736 76.68 275.968 76.292C276.204 75.9 276.608 75.704 277.18 75.704C277.752 75.704 278.154 75.9 278.386 76.292C278.622 76.68 278.74 77.22 278.74 77.912C278.74 78.612 278.622 79.16 278.386 79.556C278.154 79.948 277.752 80.144 277.18 80.144C276.608 80.144 276.204 79.948 275.968 79.556C275.736 79.16 275.62 78.612 275.62 77.912ZM278.068 77.912C278.068 77.588 278.046 77.314 278.002 77.09C277.962 76.866 277.878 76.684 277.75 76.544C277.622 76.4 277.432 76.328 277.18 76.328C276.928 76.328 276.738 76.4 276.61 76.544C276.482 76.684 276.396 76.866 276.352 77.09C276.312 77.314 276.292 77.588 276.292 77.912C276.292 78.248 276.312 78.53 276.352 78.758C276.392 78.986 276.476 79.17 276.604 79.31C276.736 79.45 276.928 79.52 277.18 79.52C277.432 79.52 277.622 79.45 277.75 79.31C277.882 79.17 277.968 78.986 278.008 78.758C278.048 78.53 278.068 78.248 278.068 77.912ZM279.464 77.912C279.464 77.22 279.58 76.68 279.812 76.292C280.048 75.9 280.452 75.704 281.024 75.704C281.596 75.704 281.998 75.9 282.23 76.292C282.466 76.68 282.584 77.22 282.584 77.912C282.584 78.612 282.466 79.16 282.23 79.556C281.998 79.948 281.596 80.144 281.024 80.144C280.452 80.144 280.048 79.948 279.812 79.556C279.58 79.16 279.464 78.612 279.464 77.912ZM281.912 77.912C281.912 77.588 281.89 77.314 281.846 77.09C281.806 76.866 281.722 76.684 281.594 76.544C281.466 76.4 281.276 76.328 281.024 76.328C280.772 76.328 280.582 76.4 280.454 76.544C280.326 76.684 280.24 76.866 280.196 77.09C280.156 77.314 280.136 77.588 280.136 77.912C280.136 78.248 280.156 78.53 280.196 78.758C280.236 78.986 280.32 79.17 280.448 79.31C280.58 79.45 280.772 79.52 281.024 79.52C281.276 79.52 281.466 79.45 281.594 79.31C281.726 79.17 281.812 78.986 281.852 78.758C281.892 78.53 281.912 78.248 281.912 77.912ZM283.307 77.912C283.307 77.22 283.423 76.68 283.655 76.292C283.891 75.9 284.295 75.704 284.867 75.704C285.439 75.704 285.841 75.9 286.073 76.292C286.309 76.68 286.427 77.22 286.427 77.912C286.427 78.612 286.309 79.16 286.073 79.556C285.841 79.948 285.439 80.144 284.867 80.144C284.295 80.144 283.891 79.948 283.655 79.556C283.423 79.16 283.307 78.612 283.307 77.912ZM285.755 77.912C285.755 77.588 285.733 77.314 285.689 77.09C285.649 76.866 285.565 76.684 285.437 76.544C285.309 76.4 285.119 76.328 284.867 76.328C284.615 76.328 284.425 76.4 284.297 76.544C284.169 76.684 284.083 76.866 284.039 77.09C283.999 77.314 283.979 77.588 283.979 77.912C283.979 78.248 283.999 78.53 284.039 78.758C284.079 78.986 284.163 79.17 284.291 79.31C284.423 79.45 284.615 79.52 284.867 79.52C285.119 79.52 285.309 79.45 285.437 79.31C285.569 79.17 285.655 78.986 285.695 78.758C285.735 78.53 285.755 78.248 285.755 77.912Z" fill="#FD9D02"/>
<defs>
<filter id="filter0_d_66_140" x="0" y="0" width="395" height="262" filterUnits="userSpaceOnUse" color-interpolation-filters="sRGB">
<feFlood flood-opacity="0" result="BackgroundImageFix"/>
<feColorMatrix in="SourceAlpha" type="matrix" values="0 0 0 0 0 0 0 0 0 0 0 0 0 0 0 0 0 0 127 0" result="hardAlpha"/>
<feOffset dx="2" dy="2"/>
<feComposite in2="hardAlpha" operator="out"/>
<feColorMatrix type="matrix" values="0 0 0 0 0.00784314 0 0 0 0 0.0117647 0 0 0 0 0.00392157 0 0 0 1 0"/>
<feBlend mode="normal" in2="BackgroundImageFix" result="effect1_dropShadow_66_140"/>
<feBlend mode="normal" in="SourceGraphic" in2="effect1_dropShadow_66_140" result="shape"/>
</filter>
<filter id="filter1_d_66_140" x="234" y="51.4067" width="63" height="46.4756" filterUnits="userSpaceOnUse" color-interpolation-filters="sRGB">
<feFlood flood-opacity="0" result="BackgroundImageFix"/>
<feColorMatrix in="SourceAlpha" type="matrix" values="0 0 0 0 0 0 0 0 0 0 0 0 0 0 0 0 0 0 127 0" result="hardAlpha"/>
<feOffset dx="1" dy="1"/>
<feComposite in2="hardAlpha" operator="out"/>
<feColorMatrix type="matrix" values="0 0 0 0 0 0 0 0 0 0 0 0 0 0 0 0 0 0 1 0"/>
<feBlend mode="normal" in2="BackgroundImageFix" result="effect1_dropShadow_66_140"/>
<feBlend mode="normal" in="SourceGraphic" in2="effect1_dropShadow_66_140" result="shape"/>
</filter>
<filter id="filter2_d_66_140" x="311" y="18.7832" width="69" height="33.6465" filterUnits="userSpaceOnUse" color-interpolation-filters="sRGB">
<feFlood flood-opacity="0" result="BackgroundImageFix"/>
<feColorMatrix in="SourceAlpha" type="matrix" values="0 0 0 0 0 0 0 0 0 0 0 0 0 0 0 0 0 0 127 0" result="hardAlpha"/>
<feOffset dx="2" dy="3"/>
<feComposite in2="hardAlpha" operator="out"/>
<feColorMatrix type="matrix" values="0 0 0 0 0.027451 0 0 0 0 0.00784314 0 0 0 0 0 0 0 0 1 0"/>
<feBlend mode="normal" in2="BackgroundImageFix" result="effect1_dropShadow_66_140"/>
<feBlend mode="normal" in="SourceGraphic" in2="effect1_dropShadow_66_140" result="shape"/>
</filter>
</defs>
</svg>
