<svg width="44" height="44" viewBox="0 0 44 44" fill="none" xmlns="http://www.w3.org/2000/svg">
<path d="M43.5 10.8604L38.9766 18.3467L38.9766 18.3486C38.3007 19.4735 37.9609 20.6936 37.9609 22C37.9609 23.3451 38.299 24.5872 38.9766 25.7148L38.9775 25.7168L43.5 33.1396L43.5 43.5L33.1885 43.5L25.7529 38.9844L25.751 38.9824C24.6219 38.3059 23.3779 37.9687 22.0312 37.9687C20.7234 37.9688 19.5013 38.3076 18.375 38.9824L18.374 38.9834L10.877 43.5L0.499998 43.5L0.499999 33.1396L5.02246 25.7168L5.02344 25.7148L5.14648 25.502C5.742 24.4314 6.03906 23.2611 6.03906 22C6.03906 20.6936 5.69928 19.4735 5.02344 18.3486L5.02344 18.3467L0.5 10.8603L0.5 0.499998L10.877 0.499999L18.374 5.0166L18.375 5.01758C19.5013 5.69239 20.7234 6.03121 22.0312 6.03125C23.3779 6.03125 24.6219 5.69408 25.751 5.01758L25.7529 5.01562L33.1885 0.5L43.5 0.5L43.5 10.8604Z" fill="#FF3200" stroke="black"/>
</svg>
