<svg width="197" height="47" viewBox="0 0 197 47" fill="none" xmlns="http://www.w3.org/2000/svg">
<path d="M24.2419 30.6152C23.248 30.9838 22.2173 31.3156 21.1498 31.6105C20.1927 31.9054 19.1436 32.1634 18.0025 32.3846C16.8982 32.5689 15.7938 32.6611 14.6895 32.6611C13.9533 32.6611 13.0698 32.5689 12.0391 32.3846C11.0453 32.2003 9.99615 31.8869 8.89183 31.4446C7.82432 31.0022 6.75681 30.4308 5.6893 29.7304C4.6586 29.03 3.71993 28.1637 2.87328 27.1316C2.02663 26.0994 1.32723 24.8829 0.77507 23.4821C0.25972 22.0813 0.00204504 20.4962 0.00204504 18.7267C-0.0347657 16.0726 0.425368 13.8239 1.38245 11.9807C2.37634 10.1376 3.59109 8.66302 5.02671 7.55711C6.46232 6.45121 8.00837 5.69551 9.66486 5.29002C11.3581 4.84766 12.8858 4.73707 14.2478 4.95825C15.3521 5.1057 16.3644 5.47433 17.2847 6.06415C18.2418 6.6171 19.0884 7.33593 19.8246 8.22066C20.5608 9.06851 21.1866 10.0454 21.702 11.1513C22.2541 12.2572 22.6958 13.4368 23.0271 14.6902C23.3216 15.8698 23.4873 17.031 23.5241 18.1738C23.5977 19.3165 23.4873 20.3671 23.1928 21.3256C22.6774 21.5099 22.1989 21.6389 21.7572 21.7127C21.3154 21.7495 20.8921 21.7679 20.4872 21.7679C19.2356 21.7679 18.1497 21.5099 17.2295 20.9938C16.346 20.4409 15.5178 19.8511 14.7447 19.2244C14.0085 18.5977 13.2539 18.0447 12.4809 17.5655C11.7447 17.0494 10.8612 16.8098 9.8305 16.8467C9.05748 16.8835 8.28445 17.031 7.51143 17.289C6.77522 17.5102 6.039 17.7314 5.30279 17.9526H5.24757C5.21076 18.3212 5.19235 18.6899 5.19235 19.0585C5.19235 19.3903 5.19235 19.722 5.19235 20.0538C5.19235 21.6021 5.37641 23.0397 5.74452 24.3668C6.11262 25.657 6.66478 26.7629 7.401 27.6845C8.17402 28.6061 9.1311 29.3249 10.2722 29.841C11.4502 30.3571 12.8306 30.6152 14.4134 30.6152C15.3337 30.6152 16.1435 30.4677 16.8429 30.1728C17.5423 29.841 18.1497 29.4908 18.6651 29.1222C19.254 28.6798 19.7694 28.1822 20.2111 27.6292L24.2419 30.6152ZM13.9717 17.4549C14.8184 18.3765 15.5178 18.9848 16.0699 19.2797C16.6221 19.5746 17.0454 19.722 17.3399 19.722C17.5608 19.722 17.7264 19.6667 17.8368 19.5561C17.9105 19.5193 17.9657 19.4824 18.0025 19.4456C18.297 18.2291 18.4258 16.8835 18.389 15.409C18.3522 13.9345 18.1313 12.5521 17.7264 11.2619C17.3583 9.9348 16.8061 8.84733 16.0699 7.99948C15.3705 7.11475 14.4687 6.67239 13.3643 6.67239C12.1128 6.67239 10.6956 7.33593 9.1127 8.66302V8.71831C8.26605 9.52931 7.56665 10.4693 7.01448 11.5384C6.46232 12.6074 6.05741 13.7133 5.79973 14.8561C6.09422 14.8192 6.40711 14.8008 6.7384 14.8008C7.10651 14.7639 7.49302 14.7455 7.89794 14.7455C9.03907 14.8192 10.125 15.0772 11.1557 15.5196C12.2232 15.962 13.1619 16.6071 13.9717 17.4549Z" fill="black"/>
<path d="M36.5254 0.5L43.0869 4.46484H43.0889C44.0863 5.06408 45.1686 5.36614 46.3271 5.36621C47.5195 5.36621 48.6217 5.06591 49.6221 4.46484L49.625 4.46387L56.1309 0.5H65.1533V9.47949L61.1953 15.9971L61.1934 16C60.5934 17.0015 60.294 18.1044 60.2939 19.2979C60.2939 20.4579 60.5949 21.5422 61.1934 22.541L61.1943 22.542L65.1533 29.1133V38.1514H56.1309L49.625 34.1875L49.6221 34.1865L49.2422 33.9746C48.3449 33.5146 47.3704 33.2852 46.3271 33.2852C45.1686 33.2852 44.0863 33.5873 43.0889 34.1865H43.0869L36.5254 38.1514H27.502V29.1133L31.4609 22.542L31.4619 22.541C32.0603 21.5422 32.3613 20.4579 32.3613 19.2979C32.3613 18.1044 32.0619 17.0015 31.4619 16L31.46 15.9971L27.502 9.47949V0.5H36.5254Z" fill="#FF3200" stroke="black"/>
<path d="M83.9305 32.108C82.9366 32.108 81.9611 32.0158 81.0041 31.8315C80.047 31.6103 79.1819 31.3707 78.4089 31.1127C77.6727 30.8178 77.0469 30.5413 76.5316 30.2833C76.0162 30.0252 75.6849 29.8593 75.5377 29.7856V46.3188H68.8013V45.9871C69.059 45.9133 69.2983 45.8212 69.5191 45.7106C69.7032 45.6 69.8688 45.4341 70.0161 45.2129C70.2001 44.9917 70.3105 44.6968 70.3474 44.3282V24.1455C70.3474 22.5972 70.3474 20.9015 70.3474 19.0584C70.3842 17.1783 70.4026 15.4089 70.4026 13.75C70.4026 12.0543 70.3842 10.5982 70.3474 9.38172C70.3474 8.12837 70.3474 7.3358 70.3474 7.00403C70.3105 6.6354 70.2001 6.34049 70.0161 6.11931C69.8688 5.89813 69.7032 5.71382 69.5191 5.56636C69.3351 5.41891 69.151 5.32675 68.967 5.28989C68.8197 5.21616 68.7461 5.1793 68.7461 5.1793V4.84753H75.4825V7.83346L75.5377 8.77348C75.869 8.10993 76.3843 7.53855 77.0837 7.05933C77.7831 6.5801 78.5561 6.17461 79.4028 5.84284C80.2863 5.51107 81.1697 5.27145 82.0532 5.124C82.9734 4.93968 83.7833 4.84753 84.4827 4.84753C85.8447 4.84753 87.0226 5.03184 88.0165 5.40048C90.3724 6.13774 92.1209 7.57542 93.262 9.71349C93.8878 10.9668 94.3111 12.4229 94.532 14.0818C94.7529 15.7038 94.716 17.5654 94.4216 19.6666C94.2007 21.178 93.851 22.6894 93.3725 24.2008C92.9307 25.6753 92.3049 27.0024 91.4951 28.182C90.6853 29.3617 89.6546 30.3201 88.403 31.0574C87.1883 31.7578 85.6974 32.108 83.9305 32.108ZM75.7033 25.6938C75.9978 25.9887 76.4211 26.431 76.9733 27.0208C77.5623 27.6107 78.2064 28.2005 78.9058 28.7903C79.6053 29.3432 80.3415 29.8409 81.1145 30.2833C81.9243 30.7256 82.7158 30.9468 83.4888 30.9468C84.225 30.9468 84.906 30.7072 85.5318 30.228C85.8263 30.0068 86.1392 29.6013 86.4704 29.0115C86.8017 28.4217 87.1146 27.7581 87.4091 27.0208C87.7036 26.2467 87.9797 25.4357 88.2374 24.5879C88.5318 23.7031 88.7711 22.8553 88.9552 22.0443C89.3601 20.2748 89.5994 18.5607 89.673 16.9018C89.7466 15.2061 89.6362 13.6947 89.3417 12.3677C89.2313 11.8147 89.0656 11.2249 88.8447 10.5982C88.6239 9.93467 88.3294 9.30799 87.9613 8.71818C87.63 8.0915 87.1883 7.57542 86.6361 7.16992C86.1207 6.72756 85.4766 6.45108 84.7035 6.34049C83.5256 6.19304 82.4949 6.24833 81.6114 6.50638C80.728 6.76442 79.955 7.15149 79.2924 7.66757C78.6298 8.1468 78.0776 8.71818 77.6359 9.38172C77.1942 10.0084 76.826 10.6351 76.5316 11.2618C76.2371 11.8516 76.0162 12.3861 75.869 12.8653C75.7585 13.3077 75.6849 13.5841 75.6481 13.6947L75.7033 25.6938ZM120.167 30.615C119.173 30.9837 118.142 31.3154 117.074 31.6103C116.117 31.9052 115.068 32.1633 113.927 32.3845C112.823 32.5688 111.719 32.6609 110.614 32.6609C109.878 32.6609 108.995 32.5688 107.964 32.3845C106.97 32.2002 105.921 31.8868 104.817 31.4445C103.749 31.0021 102.682 30.4307 101.614 29.7303C100.583 29.0299 99.6446 28.1636 98.798 27.1314C97.9513 26.0993 97.2519 24.8828 96.6998 23.482C96.1844 22.0812 95.9267 20.496 95.9267 18.7266C95.8899 16.0724 96.3501 13.8238 97.3071 11.9806C98.301 10.1374 99.5158 8.66289 100.951 7.55698C102.387 6.45108 103.933 5.69538 105.59 5.28989C107.283 4.84753 108.81 4.73694 110.172 4.95812C111.277 5.10557 112.289 5.4742 113.209 6.06402C114.166 6.61697 115.013 7.3358 115.749 8.22052C116.486 9.06838 117.111 10.0453 117.627 11.1512C118.179 12.2571 118.621 13.4367 118.952 14.69C119.246 15.8697 119.412 17.0309 119.449 18.1736C119.522 19.3164 119.412 20.367 119.117 21.3255C118.602 21.5098 118.124 21.6388 117.682 21.7125C117.24 21.7494 116.817 21.7678 116.412 21.7678C115.16 21.7678 114.074 21.5098 113.154 20.9937C112.271 20.4407 111.442 19.8509 110.669 19.2242C109.933 18.5976 109.179 18.0446 108.406 17.5654C107.669 17.0493 106.786 16.8097 105.755 16.8466C104.982 16.8834 104.209 17.0309 103.436 17.2889C102.7 17.5101 101.964 17.7313 101.227 17.9525H101.172C101.135 18.3211 101.117 18.6897 101.117 19.0584C101.117 19.3901 101.117 19.7219 101.117 20.0537C101.117 21.6019 101.301 23.0396 101.669 24.3667C102.037 25.6569 102.589 26.7628 103.326 27.6844C104.099 28.606 105.056 29.3248 106.197 29.8409C107.375 30.357 108.755 30.615 110.338 30.615C111.258 30.615 112.068 30.4676 112.768 30.1727C113.467 29.8409 114.074 29.4907 114.59 29.1221C115.179 28.6797 115.694 28.182 116.136 27.6291L120.167 30.615ZM109.896 17.4548C110.743 18.3764 111.442 18.9846 111.995 19.2795C112.547 19.5744 112.97 19.7219 113.265 19.7219C113.485 19.7219 113.651 19.6666 113.762 19.556C113.835 19.5191 113.89 19.4823 113.927 19.4454C114.222 18.2289 114.351 16.8834 114.314 15.4089C114.277 13.9343 114.056 12.552 113.651 11.2618C113.283 9.93467 112.731 8.8472 111.995 7.99934C111.295 7.11462 110.393 6.67226 109.289 6.67226C108.037 6.67226 106.62 7.3358 105.037 8.66289V8.71818C104.191 9.52917 103.491 10.4692 102.939 11.5382C102.387 12.6073 101.982 13.7132 101.724 14.8559C102.019 14.8191 102.332 14.8006 102.663 14.8006C103.031 14.7638 103.418 14.7453 103.823 14.7453C104.964 14.8191 106.05 15.0771 107.08 15.5195C108.148 15.9618 109.087 16.6069 109.896 17.4548ZM128.241 30.3938V32.6056H121.339L121.284 32.108C121.321 32.108 121.413 32.0896 121.56 32.0527C121.707 32.0158 121.873 31.9605 122.057 31.8868C122.241 31.8131 122.407 31.7025 122.554 31.555C122.738 31.4076 122.83 31.2233 122.83 31.0021C122.83 30.8546 122.83 30.1727 122.83 28.9562C122.867 27.7028 122.885 26.1914 122.885 24.422C122.885 22.6525 122.885 20.7541 122.885 18.7266C122.885 16.6622 122.885 14.7453 122.885 12.9759C122.885 11.2065 122.867 9.71349 122.83 8.497C122.83 7.24365 122.83 6.54324 122.83 6.39579C122.793 5.99029 122.554 5.73225 122.112 5.62166C121.671 5.4742 121.413 5.40048 121.339 5.40048L121.395 4.90282H128.297V7.05933C128.628 6.91187 129.088 6.72756 129.677 6.50638C130.266 6.2852 130.929 6.06402 131.665 5.84284C132.401 5.62166 133.192 5.41891 134.039 5.23459C134.886 5.05027 135.751 4.90282 136.634 4.79223C136.929 4.7185 137.205 4.68164 137.462 4.68164C137.757 4.68164 138.033 4.68164 138.291 4.68164C140.315 4.75537 141.861 5.28989 142.929 6.2852C144.033 7.28051 144.843 8.36798 145.358 9.54761C145.653 10.1374 145.855 10.7272 145.966 11.317C146.113 11.87 146.223 12.3677 146.297 12.81C146.371 13.3261 146.407 13.8053 146.407 14.2477V28.6797V29.5644V30.1727C146.444 30.5413 146.536 30.8362 146.684 31.0574C146.868 31.2786 147.052 31.4629 147.236 31.6103C147.457 31.7578 147.696 31.8684 147.954 31.9421L147.898 32.4398H139.505L139.45 31.9421C139.708 31.8684 139.947 31.7578 140.168 31.6103C140.352 31.4629 140.518 31.2786 140.665 31.0574C140.849 30.8362 140.941 30.5413 140.941 30.1727C140.978 30.0989 140.996 29.8962 140.996 29.5644V28.6797V14.2477C140.959 14.1371 140.941 13.7685 140.941 13.1418C140.941 12.4782 140.904 11.741 140.831 10.93C140.757 10.2664 140.665 9.6582 140.555 9.10525C140.444 8.5523 140.26 8.07307 140.002 7.66757C139.745 7.22521 139.377 6.89344 138.898 6.67226C138.456 6.45108 137.849 6.34049 137.076 6.34049C136.377 6.34049 135.677 6.46951 134.978 6.72756C134.278 6.94874 133.597 7.26208 132.935 7.66757C132.272 8.03621 131.646 8.46014 131.057 8.93936C130.468 9.38172 129.916 9.82408 129.401 10.2664C129.217 10.4508 129.051 10.6166 128.904 10.7641C128.757 10.8747 128.628 10.9853 128.517 11.0959C128.481 11.1696 128.444 11.2249 128.407 11.2618C128.37 11.2618 128.333 11.2802 128.297 11.317V11.3723L128.241 30.3938ZM170.999 25.5832C170.888 26.984 170.41 28.1267 169.563 29.0115C168.717 29.8962 167.668 30.5966 166.416 31.1127C165.164 31.5919 163.784 31.9237 162.275 32.108C160.765 32.2923 159.311 32.3845 157.913 32.3845C156.956 32.3845 156.035 32.366 155.152 32.3292C154.305 32.2554 153.551 32.1817 152.888 32.108C152.152 32.0343 151.452 31.9421 150.79 31.8315L152.225 27.1314C152.225 27.7213 152.409 28.2558 152.778 28.735C153.146 29.2142 153.624 29.6197 154.213 29.9515C154.839 30.2833 155.538 30.5413 156.311 30.7256C157.121 30.9099 157.931 31.0021 158.741 31.0021C159.624 31.0021 160.489 30.9099 161.336 30.7256C162.22 30.5044 163.011 30.1727 163.71 29.7303C164.447 29.2879 165.036 28.735 165.477 28.0715C165.956 27.4079 166.213 26.6153 166.25 25.6938C166.287 25.0671 165.919 24.4404 165.146 23.8137C164.41 23.1871 163.453 22.5419 162.275 21.8784C161.134 21.178 159.882 20.4407 158.52 19.6666C157.195 18.8925 155.943 18.063 154.765 17.1783C153.624 16.2567 152.667 15.2799 151.894 14.2477C151.121 13.1786 150.735 12.0359 150.735 10.8194C150.735 9.52917 151.213 8.497 152.17 7.72287C153.127 6.94874 154.342 6.35892 155.814 5.95343C157.287 5.54793 158.87 5.27145 160.563 5.124C162.293 4.97655 163.913 4.90282 165.422 4.90282C166.232 4.90282 166.968 4.92125 167.631 4.95812C168.293 4.95812 168.882 4.97655 169.398 5.01341C169.987 5.05027 170.52 5.08714 170.999 5.124L169.895 10.1559C169.968 9.75035 169.913 9.36329 169.729 8.99466C169.582 8.62602 169.361 8.27582 169.066 7.94405C168.809 7.61228 168.496 7.3358 168.128 7.11462C167.796 6.89344 167.465 6.72756 167.134 6.61697C166.398 6.39579 165.661 6.24833 164.925 6.17461C164.226 6.06402 163.563 6.00872 162.937 6.00872C161.759 6.00872 160.692 6.15618 159.735 6.45108C158.815 6.74599 158.023 7.13306 157.361 7.61228C156.735 8.05464 156.256 8.57073 155.925 9.16054C155.594 9.75035 155.446 10.3402 155.483 10.93C155.52 11.5567 155.925 12.1833 156.698 12.81C157.508 13.3998 158.502 14.0265 159.68 14.69C160.894 15.3167 162.183 15.9987 163.545 16.736C164.907 17.4732 166.158 18.2842 167.299 19.1689C168.441 20.0537 169.361 21.0305 170.06 22.0996C170.796 23.1318 171.109 24.293 170.999 25.5832ZM196.298 18.6713C196.298 20.5882 195.966 22.3945 195.304 24.0902C194.678 25.7491 193.813 27.2052 192.709 28.4585C191.604 29.7119 190.316 30.7072 188.844 31.4445C187.371 32.1449 185.807 32.4951 184.15 32.4951C182.494 32.4951 180.929 32.1449 179.457 31.4445C177.984 30.7072 176.696 29.7119 175.592 28.4585C174.487 27.2052 173.622 25.7491 172.997 24.0902C172.371 22.3945 172.058 20.5882 172.058 18.6713C172.058 16.7544 172.371 14.9665 172.997 13.3077C173.622 11.612 174.487 10.1374 175.592 8.88407C176.696 7.63071 177.984 6.65383 179.457 5.95343C180.929 5.21616 182.494 4.84753 184.15 4.84753C185.807 4.84753 187.371 5.21616 188.844 5.95343C190.316 6.65383 191.604 7.63071 192.709 8.88407C193.813 10.1374 194.678 11.612 195.304 13.3077C195.966 14.9665 196.298 16.7544 196.298 18.6713ZM177.303 18.7266C177.303 20.3117 177.487 21.86 177.856 23.3714C178.261 24.8459 178.776 26.1546 179.402 27.2973C180.027 28.4401 180.764 29.3617 181.61 30.0621C182.457 30.7256 183.34 31.0574 184.261 31.0574C185.218 31.0574 186.12 30.7256 186.966 30.0621C187.813 29.3617 188.568 28.4401 189.23 27.2973C189.893 26.1546 190.408 24.8459 190.776 23.3714C191.181 21.86 191.384 20.3117 191.384 18.7266C191.384 17.1046 191.181 15.5563 190.776 14.0818C190.371 12.5704 189.837 11.2433 189.175 10.1006C188.512 8.95779 187.739 8.05464 186.856 7.3911C186.009 6.69069 185.107 6.34049 184.15 6.34049C183.009 6.34049 182.015 6.80128 181.169 7.72287C180.322 8.60759 179.604 9.69506 179.015 10.9853C178.463 12.2755 178.04 13.6394 177.745 15.0771C177.451 16.4779 177.303 17.6944 177.303 18.7266Z" fill="black"/>
</svg>
